<svg xmlns="http://www.w3.org/2000/svg" xmlns:xlink="http://www.w3.org/1999/xlink" fill="none" height="125" viewBox="0 0 183 125" width="183"><clipPath id="a"><path d="m0 0h183v125h-183z"></path></clipPath><g clip-path="url(#a)"><path d="m153.518 15.7997-1.69-1.1051-2.209 1.0073-2.09 1.3066-2.455.3798-2.255.898-2.152 1.1626-1.199 1.3354.285 2.3254.292 2.3253-.046 2.3427.337 2.5268-2.552.9382-2.575.3511-2.415 1.3469.011-2.4808.394-2.2563-.028-2.2793.297-.7253-2.021-.518-2.41.5353-2.072 1.3469-2.284.8461-2.403 1.2548-.976-3.0219-.486-2.8951 2.01-1.5196 2.289-1.1972 2.09-1.4908 2.078-1.508.183-1.7383-.828-2.0721-.811-2.0779-.839-2.06631-.514-2.19874-.982-2.02031-.651-1.01879-1.381.10361-1.667 1.64618-1.719 1.57134-2.112 1.0303-1.873 1.3699-1.695 1.61742-.891 1.6001.931 2.2275 1.079 2.1642 1.101 2.1585.514 2.1584-2.124 1.3757-2.266 1.5253-2.21 1.531-1.084-2.2735-1.096-2.3254-.657-2.5211-1.267-.8115-1.188.5871-1.479 1.5195-1.781 1.2202-1.513 1.4966-1.2557 1.6346-1.393-1.8303-1.4387-1.8937-1.4102-1.9167 1.2104-1.911 1.3473-1.7958 1.7584-1.4735 1.2785-1.8591 1.039-2.04911-.017-1.45048-1.204-1.85914-1.7587-1.32385-1.5986-1.48501-1.2845-1.79007-1.2618-1.81309938-2.2151.23023438-1.2845 1.784315-1.7527 1.3296-1.2846 1.79008-1.8783 1.22024-1.3245 1.74978-.1656 1.88792 1.7242 1.50229 1.353 1.7901 1.2903 1.8476 1.1304 1.9743 1.5472 1.7152-1.5301 1.8822-1.6099 1.7613-1.1647 2.0606-1.4558-1.4966-1.3188-1.6807-1.7356-1.2663-1.5529-1.4504-1.1361-.5238-.8392.9209-1.1533 2.2966-.9077 2.4117-1.1704 2.4175-2.2094-1.8189-2.2837-1.5023-2.2436-1.2893.5652-2.1987.8335-2.2678 1.0276-2.193.7765-2.2908-.3825-1.3987-1.6842-1.62317-1.9754-1.22024-1.8669-1.36989-1.8669-1.37565-1.8269-1.43321-1.176-.13239-1.0619.70222-.7594 2.09513-.3768 2.24479-1.0219 1.99731-1.1646 1.9455-.6794 2.1354.7878 1.5656 2.0553 1.5368 1.8669 1.8131 2.2951 1.1972 2.2379 1.4274-.942 2.878-.9477 2.7225-2.2893-.5929-2.0667-1.3526-2.3579-.6734-2.0553-1.3929-1.4501.4432-.2455 1.1914v2.2736l-.0228 2.2793.1998 2.475-2.5234-1.0188-2.4835-.6158-2.3179-1.157.1142-2.3656v-2.3369l-.0628-2.3426-.0628-2.3427-.5538-1.2663-2.1181-1.2375-2.2951-.7943-2.3121-.754-2.2323-.967-2.2323-.967-1.4901.0864-.5195 1.3641.2398 2.2678-.4111 2.2736-.0285 2.2736.1313 2.2735.3939 2.2736.6851 1.3411 2.4264 1.0706 2.6433.3856 2.4036 1.1627 2.7803.3857-.2112 2.4174.137 2.2448.5709 2.2218-.1713 2.2678.982 1.036 1.9525 1.157 2.101.7828 2.0381.9612 2.2494.4835-.1028 2.4692.1256 2.4463-.3596 2.4462 1.0333 1.485 2.0496.472 1.707 1.2778 1.9126.8058 2.0153.5583.451.6217.5309.4892.1485.8231 2.1124 1.0879 2.1066.3856 1.9012.9785 2.6661.518 2.6833.403 2.6719.4604 2.3065.0403 2.2608.5353 2.3007.0115 2.2951.0346 2.2893.3626 2.3008.023 2.3008-.2187 2.2951.0403 2.3064.1669 2.2661-.5468 2.296-.0864 2.238-.6158 2.3-.0806 2.33.0403 2.626-.5929 2.632-.5641 2.592-.7252 1.946-.5928 1.816-.9498 1.547-1.3699 1.102-.7885 1.827-.9785 2.152-.1266 2.409-.8634 2.33-1.0648.833-1.4333.103-.023-.525-2.4462.382-2.4463-.285-2.6016 2.221-.9382 2.232-.4375 2.05-.9151 2.163-.6217.537-1.3929.474-2.2218-.223-2.2678.48-2.2275.085-2.2563 2.478-.9382 2.541-.7137 2.632-.4375 2.494-.8864.92-1.531-.263-2.2678.12-2.2736.285-2.2736.097-2.2735-.034-2.2736-.514-.4317zm-109.7005 13.5666-2.1181-1.0706-2.101-.5411-2.2037-.2359-1.7698-1.0937.0571-1.9109-.2741-2.0779.3369-2.0778-.2741-1.98 2.101.6504 2.0781.9554 2.2494.5411 2.238 1.0073-.5881 2.6419.4453 2.5268-.1769 2.6707zm89.0225 13.3996.331-2.4635-.166-2.2851-.428-2.4577 2.706-.449 2.392-.8749 2.295-1.1339-.473 2.2909.074 2.3253.057 2.383-2.284.777-2.072 1.1627zm-10.368 9.7389-.148 1.5369-1.314-.921-1.769-.4144-1.348-.7367 1.839-.8577 2.363-1.4965.377 2.8837zm-66.1858-15.558 1.9125 1.554 2.0153 1.0361 2.2894.8806-.7251 2.5787-.1141 2.2908-1.6899-.4202-1.7642-.9497-1.8783-.3741-.1541-2.0894.1599-2.1585-.0571-2.3426zm15.3175-.1439-1.1818 2.1584-.5138 2.1239-2.3693-1.0821-1.8554-1.8303.314-2.5902.0114-2.7686 1.5985 1.6174 1.9297 1.1742 2.061 1.1915zm-7.2677 9.9173.6623-2.7571.0171-2.5671 2.2665 1.0534 1.787 1.7958-.0343 2.6304.2741 2.7628-2.2323-1.7958-2.7461-1.1166zm.0343 2.9355 2.7632 2.1757-2.0153.5411-.9477.5468.2055-3.2636zm7.6445-3.3154 1.5414 1.9858 1.7299 1.4332-3.4711.754.5024-2.0721-.3026-2.1066zm4.8128-15.7768 1.0676 1.9628 1.2959 1.5425 1.6043 1.4908-1.3131 1.9858-.5481 1.8706-2.1181-1.5886-1.804-1.9397.8963-2.4866.9249-2.8376zm1.4387 11.9549-.7536 2.6823-.0971 2.5268-1.8669-1.2836-1.3645-2.0433-1.6613-1.5138.4396-2.0318.7308-1.7728 2.1123 1.6807 2.4664 1.7555zm2.2379 2.6477 1.2446 2.0836 1.4844 1.5599-3.3855.4144.7308-1.9627zm6.9937-16.2085 1.0334 2.0894 1.3245 1.6634 1.6385 1.652-1.8384 2.3484-1.176 2.3541-1.4844-1.1396-1.3531-1.6577-1.6842-1.1627 1.022-2.0261 1.3245-1.9224 1.1989-2.193zm11.4582 0 .9763 2.3311 1.3246 1.9225 1.638 1.934-2.038 1.1684-1.5812 1.4044-1.3987 1.6117-1.022-2.6477-1.4957-2.3311 1.0276-1.7901 1.3245-1.6635 1.2446-1.9454zm-.0685 12.9507 1.9524-1.1684 1.502-1.4966 1.552-1.7958.446 2.3945.753 1.8649-1.233 1.8476-1.764 1.5771-1.216 1.9052-1.0162-2.4578-.9819-2.6764zm-2.7404-.3971-1.3416 1.6807-.7993 1.8361-.7707 2.1412-.668-2.193-.902-1.7843-1.1533-1.6577 1.6557-2.4002 1.0619-2.5959 1.4501 2.3887 1.4672 2.5901zm-8.5751.3971-1.3359 2.5499-.6794 2.544-1.6728-1.4619-1.0847-2.1585-1.4444-1.6749.4967-1.9628.8564-1.6922 1.4158 1.1684 1.7242 1.2375 1.7127 1.4505zm1.6442 2.9355.6166 2.003.9363 1.5426-2.9916.1612 1.1133-1.698.3197-2.0031zm8.0328 0 .314 1.9858.6794 1.5771-2.9745-.0173 1.3702-1.5598.6052-1.9858zm8.7119.3223-.08 2.0721.343 1.7383-3.357-.3223 1.884-1.4448 1.21-2.0375zm3.683-14.6026.787 2.901 1.211 2.4635-1.799 2.1124-2.3 1.3756-.543-1.8764-1.039-1.9512 1.473-1.4102 1.028-1.744 1.187-1.8707zm-.743 17.4806.057-2.8492-.428-2.5441 1.879-2.2045 2.375-1.4389.462 1.9224.965 2.0203-1.97 1.3872-1.593 1.7958-1.747 1.9052zm5.63-1.8822.028 2.1815.423 2.5038-1.999-.2763-1.804-.6217 1.804-1.6807 1.548-2.1009zm.336-9.3648 2.147-1.0706 1.73-1.4447 1.867-1.7095-.137 3.0046.308 2.5901-2.004 1.5944-2.175 1.1396-.702-1.8994zm15.386-2.7455-2.42.8806-2.067 1.3354-2.152 1.6346.143-2.4635-.223-2.1699-.503-2.1412 2.592-.7368 2.381-1.249 2.455-1.2548-.16 2.0779.217 1.9858-.268 2.0951zm-13.816 17.3769.058-.1842.125-2.0318-.148-2.0894.81-2.7801 2.17-1.4044 2.072-1.6807-.114 2.7571.434 2.6764-2.221 1.9973-1.684 1.2548-1.513 1.4908zm8.05-5.7962.2-2.6476-.331-2.383 1.678-1.4505 2.233-.6561 1.701-1.1282.171 1.911-.291 2.1642.28 2.0894-1.736.7943-1.907.518-1.998.7943zm26.679-27.5417-.371 2.2563.114 2.0778.434 2.0779-.497 1.9167-1.935.5583-1.987.9209-2.169.3339-1.896.8864-.257-2.4175.04-2.521-.359-2.6823 2.295-.9267 2.329-.3281 1.93-1.3353 2.318-.8116zm-34.614-5.5142 2.106-1.0303 1.684-1.3814 1.502-1.64613 1.815-.81158.84 2.42901 1.239 2.4807.65 2.5154-1.473 1.1799-1.61 1.3929-1.804 1.1167-1.866 1.5195-1.114-2.665-.496-2.6995-1.468-2.4002zm1.872 11.5348.485 2.9815.931 2.5902-1.667 1.7613-2.318 1.0418-1.787 1.4332-.839-1.6059-.491-2.0146-.999-1.7037 2.078-1.5541 2.306-1.3181 2.313-1.6174zm-12.697-2.406.6 2.2851.982 1.9282 1.295 1.9455-1.764 1.5023-1.267 1.698-1.051 1.8706-.964-2.1987-1.433-1.9052-1.45-1.9685 1.752-1.6347 1.405-1.8879 1.901-1.6347zm-18.3832-12.54198 1.8155-1.30658 1.3416-1.5771 1.1133-1.80159 1.6328-1.03029 1.2274 1.41018 1.6214 1.30083 1.1818 1.73251 1.5529 1.26629-1.2275 1.90523-1.5129 1.7728-1.1646 2.049-1.6785 1.9167-1.1989-2.2908-1.8384-1.5195-1.4273-1.8361-1.4444-2.00309zm5.9032 11.74768 1.1475 2.2218 1.4558 1.7901 1.7699 1.767-1.8669 1.7613-1.3645 1.9167-1.1418 2.0836-1.0905-2.1181-1.5414-1.7959-1.5643-1.8533 1.4729-1.8477 1.0962-2.0491zm-12.4801.7943 1.4786 2.0491 1.7242 1.5714 2.0324 1.5195-1.7584 1.9052-1.2503 2.0203-1.0162 2.17-.9991-1.9052-1.4387-1.5714-1.4615-1.6174.9876-1.98.5652-2.1009 1.1419-2.0548zm-5.7092 6.7632-1.2331 1.8534-.6965 1.9282-.6223 2.2275-1.8612-1.9915-1.9811-1.4908-2.1523-1.2663 1.1418-2.6132.5424-2.6995 2.2494 1.2203 2.1809 1.5138 2.432 1.3238zm-15.4717-13.227 1.4273-2.5211.8678-2.6246.7194-2.89522 1.7127 1.76704 1.7527 1.28928 1.9182 1.0649 1.4273 1.3584-.7821 2.3656-.7993 2.5614-1.1076 2.4289-1.9125-.9324-1.707-1.2548-1.433-1.6807-2.0953-.9324zm4.0307 15.7711-.6566 2.2563-.1085 2.1814.0286 2.452-2.0895-1.7325-2.1238-1.2375-2.2608-.9958.2226-2.003-.3311-1.9685-.2683-2.0721 2.4948 1.1512 2.5863.7367 2.5177 1.2318zm-9.9681 11.7477-2.2095-1.2778-2.2437-.7425-2.4834-.5411.3539-2.498-.137-2.3139-.4167-2.3023 2.2722 1.1914 2.4606.6677 2.512.7022-.1427 2.3484.2855 2.2909-.257 2.4635zm8.1868 11.765-1.8326-1.2145-1.8726-.6907-2.1409-.5238.5195-2.8664-.1199-2.5038 2.592.6907 2.4949 1.1569.1256 1.7728.2226 2.003v2.1758zm60.5736 3.5916-1.907.5526-1.781.7885-1.781.944h-2.695l-2.592.4029-2.58.5871-2.655-.1036-2.615.3799-2.626.3223-2.6434-.0518-2.6376.3453-2.6433-.092-2.238-.6159-2.2722.4317-2.2551-.1209-2.2323-.4317-2.2608-.0403-2.1923-.6677-2.2836.1152-2.4949-.8519-2.6262-.0806-2.4949-.7425-1.9011-.2302-1.7584-.7541-1.2332-1.2029-.3197-.1439.1142-.3857-.0685-.0806-.0343.0576-.4225-.0633.0742-.2533.177-.2532.2284-.2763 1.6214-.6274 1.6785-.8864 1.8897-.2187 2.5463-.449 2.4834-.8 2.5349-.6217 2.2836.1612 2.238-.2015 2.2208-.4604 2.2723.4259 2.2436-.1094 2.2437-.2302 2.2494-.2245 2.2437.449 2.2437-.0288 2.2495.0173 2.249.0345 2.25.0576 2.243.1151 2.204.6101 2.615.0921 2.62.0748 2.587.3914 1.804.8001 1.809.5813 1.73.6389.428.2533.24 2.003-.371.6619zm1.547-2.4808.617-2.2275.12-2.1009-.103-3.1887 3.003-.4317 2.529-.9555.154 2.5268-.325 2.665-2.369 1.3641-1.673 1.2318-1.953 1.1224z" fill="#ccaf66"></path><g fill="#f5f5f6"><path d="m19.4909 105.182c-.1655-.471-.2226-.955-.1827-1.444.1599-1.687.4682-3.304.9192-4.8697.4453-1.5598.7136-2.4865.7936-2.7743l.7307-2.5268c.5709-2.1355 1.4673-5.3357 2.689-9.6123l.1827-.495-2.5634.5525c-2.8545.5756-5.2638 1.1109-7.2391 1.6002-1.9754.495-3.9222 1.0706-5.83475 1.7267-.45103.1669-.79357.495-1.03906.9843-1.18179 3.0391-2.79176 7.638-4.82421 13.7964l-.18269.737c-.16556.328-.36538.449-.61087.368-.28546-.207-.44531-.368-.49099-.495v-.31c0-.288.02284-.513.0628-.68l.49099-1.726c.32542-1.3126.65084-2.4638.97626-3.448l2.62619-7.7647.18269-.3684-.91917.2475c-.49098.2073-1.72986.7195-3.72805 1.5426-.11989.0806-.30829.1669-.548074.2475h-.245492c-.245492 0-.445311-.1036-.610876-.3108-.0799274-.1612-.11989121-.2878-.11989121-.3684 0-.2072.10276421-.3684.30829221-.495.245492-.2475.508111-.4489.793571-.6159l2.32361-1.1108c.24549-.1209.67367-.3166 1.28455-.5871.61087-.2648 1.15895-.4835 1.64993-.6447.57091-.2475.9991-.6792 1.28455-1.2951 1.71274-3.8621 3.48259-7.2063 5.31519-10.0382 2.4035-3.6952 4.8699-6.5271 7.3933-8.5014 1.1818-.9037 2.238-1.6231 3.1743-2.1584 1.0562-.6159 2.1409-.9267 3.237-.9267.2455 0 .6509.0403 1.2218.1208 1.7527.2878 2.8488 1.3527 3.2999 3.2061.2055.7367.2626 1.5368.1827 2.4001-.1199 2.3427-.5938 5.0134-1.4045 8.0064l-.7936 3.0161 1.65-.1842h.8563c.3255.0403.5481.2648.6737.6792v.1209c0 .2878-.1427.5353-.4282.7367-.1655.0806-.3653.167-.6108.2475l-2.2608.6159c-.4054.0403-.6737.3108-.7936.8001-1.2218 4.0233-2.1181 7.0452-2.689 9.054l-1.1019 4.3111c-.491 1.9685-.8792 3.4305-1.1589 4.3743-.2855 1.025-.6623 2.107-1.1304 3.235-.4682 1.128-.9877 1.692-1.5586 1.692-.6509 0-1.0619-.236-1.2218-.708zm-9.2259-20.2947 1.4672-.495c.531-.2072 1.3645-.472 2.5063-.8 4.1163-1.0246 7.3305-1.7671 9.6541-2.216.6109-.1209 1.0562-.3281 1.3417-.6159.2854-.2878.5081-.7368.6737-1.3526l.548-2.0319c.531-2.0088.9078-3.5628 1.1304-4.6507.2227-1.0879.3768-2.2505.4568-3.4823.0399-.2072.0628-.5353.0628-.9843 0-.4086-.0229-.7194-.0628-.9266-.1199-.8231-.6109-1.2721-1.4673-1.3527h-.6108c-.6109 0-1.1019.1036-1.4673.3108-1.0162.4548-1.6899.8001-2.0153 1.0476-1.6271.9843-3.2371 2.3829-4.8242 4.1903-1.6728 1.8879-3.1571 3.9427-4.4588 6.1587-1.3017 2.2161-2.5691 4.7026-3.79088 7.4539l.85638-.2475z"></path><path d="m39.5071 108.291c-.7765 0-1.4045-.455-1.8954-1.353-.531-.944-.8792-2.199-1.0391-3.759-.0799-.823-.1199-1.456-.1199-1.911 0-1.3119.1827-2.9753.5481-4.9899.1598-.9036.4453-2.2563.8563-4.0636l.4282-2.0318.1199-.495-.1199-.0633-1.6499 2.5268-3.1172 4.3111c-.2055.3281-.5309.6389-.9762.9267-.4054.2878-.7936.4317-1.159.4317-.6109 0-1.119-.3108-1.53-.9267-.4453-.6159-.6509-1.2548-.6109-1.9109 0-.9037.0799-1.7038.2455-2.4002.8164-2.8722 2.1409-5.422 3.9735-7.6381.4453-.5352 1.0391-1.0475 1.7699-1.5425.5709-.3281 1.1018-.495 1.5871-.495 1.1418 0 1.9982.6158 2.5691 1.8476l.2455.5526.491-1.1685.6736-1.7267c.531-1.439 1.119-2.9988 1.7699-4.6795 1.1418-2.7513 2.5234-5.4393 4.1562-8.0698.1599-.2878.6109-.9439 1.3417-1.9685.2454-.328.548-.5755.9134-.7367.1199-.0806.2855-.1209.491-.1209.2854 0 .5081.0806.6737.2475.3254.2475.4282.5929.3083 1.0476-.04.2072-.1028.3684-.1827.495-.08.1209-.1428.2475-.1827.3684-.2455.495-.4054.8864-.491 1.1684-3.2999 7.2697-5.6635 13.2039-7.085 17.8029-1.7128 5.8307-2.6262 11.1088-2.7518 15.8283v.864c0 .575.0799 1.024.2455 1.352.4053-.495.7136-.886.9191-1.168l1.2846-2.343c1.1019-2.256 2.375-4.5699 3.8194-6.9298s2.2893-3.7471 2.5348-4.1558l1.65-2.711c.1199-.2072.3654-.495.7307-.8634.2056-.2877.4282-.328.6737-.1208.1599.1208.1599.3511 0 .6792l-4.4017 7.1487c-1.8726 3.0391-3.4597 6.1989-4.7671 9.4859-.491 1.024-.8336 1.727-1.0391 2.095-.5309.777-1.1589 1.168-1.8954 1.168zm-6.537-13.4288c.9363-1.0246 1.8041-2.0951 2.5977-3.2003.7936-1.1108 1.7413-2.5268 2.8431-4.2478.08-.1209.1199-.3108.1199-.5526-.2854-.7425-.4681-1.1914-.5481-1.3583-.2454-.4087-.5081-.6159-.7935-.6159-.2855 0-.5481.1439-.7936.4317-.3654.4086-.7136.9267-1.039 1.5425-1.3874 2.9183-2.3237 5.4796-2.8089 7.7014l-.1199.7425.5481-.4317z"></path><path d="m52.404 98.4366c-1.1019 0-1.9982-.449-2.689-1.3526-.491-.6965-.7308-1.3757-.7308-2.0319 0-.8633.1028-1.8073.3083-2.8318.491-2.0952 1.3245-4.127 2.5063-6.1013.2055-.2475.3882-.5007.5481-.7712.1598-.2648.3254-.5008.491-.708.2455-.3684.5994-.6562 1.0676-.8634.4681-.2072.9077-.3108 1.3131-.3108.4053 0 .6908.0806.8563.2475.1599.1669.1599.4087 0 .7367-.2455.6159-.6736 1.6002-1.2845 2.9586-.4054.823-.805 1.6749-1.1932 2.5556-.3882.8864-.6851 1.7152-.8849 2.4922-.2056 1.0246-.3083 1.9916-.3083 2.8952 0 .6562.2226.9843.6736.9843.1199 0 .3483-.0403.6737-.1209.7308-.2475 1.4045-.6964 2.0153-1.3526 1.3017-1.3526 2.2209-2.8319 2.7518-4.4378l.5481-1.8476c-1.1818-.6159-1.8954-1.4159-2.1409-2.4002-.0799-.4087-.1199-.6792-.1199-.8001 0-.6158.2227-1.272.6737-1.9685.3654-.3683.7536-.5525 1.1589-.5525.531 0 .9363.2475 1.2218.7367.4453.7828.6736 1.6635.6736 2.6477l-.0628.8001c0 .1209-.0399.3914-.1198.8.3653.0403.8735.0634 1.53.0634 1.3017 0 2.4835-.1554 3.5454-.4605 1.0561-.3108 2.3236-.8346 3.7908-1.5714.1599-.0805.2855-.1208.3654-.1208.3254 0 .491.1439.491.4317 0 .2475-.1427.4547-.4282.6158-.9763.6965-2.1409 1.2606-3.4826 1.6923-1.3416.4316-2.7518.6446-4.2133.6446-.4053 0-.9762-.0403-1.7127-.1209l-1.159 3.2636c-.6508 1.6404-1.6499 3.1427-2.9916 4.4953-.6108.6159-1.3873 1.0879-2.3236 1.416-.3653.1669-.8164.2475-1.3416.2475zm6.8452-12.968c-.0799-.4719-.2683-.9554-.5481-1.4504-.3654.495-.5481.9842-.5481 1.4792 0 .3684.1028.6965.3083.9843.2056.2878.491.5122.8564.6791.04-.6561.0228-1.2202-.0628-1.6922z"></path><path d="m67.2534 98.189c-.0799-.4087-.1199-.7368-.1199-.9843 0-.2878.0228-.495.0628-.6159.2055-1.2317.6508-3.3441 1.3416-6.3429.4511-1.8879 1.159-4.7198 2.1409-8.5014l.1199-.3684c.1199-.495.4282-.7367.9192-.7367h.1827c.4053 0 .7136.2244.9135.6792.0399.0805.1198.3511.2454.8.1199.4547.1599.8864.1199 1.2951 0 .9439-.1027 1.9915-.3083 3.1427l-1.039 4.6795.6737-.9267c.6508-.8634.9991-1.3354 1.039-1.4159l3.6025-4.6795c.8563-1.1512 1.9753-2.1585 3.3626-3.0161.1199-.0403.3369-.1439.6395-.3108.3083-.1612.5994-.2878.8849-.3684.4453-.1209.8735-.0633 1.2845.1842.4054.2475.6337.6159.6737 1.1109.0799.328.1199.6158.1199.8633 0 .2072-.04.472-.1199.8001-.1199.4547-.4681 1.4793-1.0391 3.0794-.2854.6964-.8164.9842-1.5871.8634-.6109-.2475-.8792-.7598-.7936-1.5426l.3083-1.7268.4282-1.7267c-.5309.1669-1.0619.472-1.5871.9267-1.4273 1.1511-2.729 2.5441-3.9108 4.1902-1.3873 1.9685-3.0943 4.8868-5.1325 8.7489-.2454.495-.4281.9843-.548 1.4793l-.3654.6792c-.1199.2878-.3083.5123-.5481.6792-.2455.1611-.5081.2072-.7936.1209-.6508-.0806-1.039-.4317-1.1589-1.0476z"></path><path d="m95.0853 103.611c-.451 0-.8849-.132-1.3131-.403-.4281-.264-.7821-.644-1.0676-1.139-.451-.697-.6337-1.48-.548-2.343.0799-1.7671.2226-3.3442.4281-4.7428.2855-2.1757.9192-4.8868 1.8955-8.1331l.3083-.8633-.1827-.0634c-.1199.2475-1.6271 2.2909-4.5217 6.13-2.8945 3.8392-4.5844 5.9228-5.0696 6.2509-.2455.2072-.571.3108-.9763.3108-.6908 0-1.2218-.3108-1.5871-.9267-.3654-.6159-.5481-1.3526-.5481-2.216 0-.7367.1027-1.5195.3083-2.3426.6508-2.8319 1.57-5.6235 2.7518-8.3805.0799-.1612.2455-.472.4909-.921.2455-.4489.491-.8403.7308-1.1684.2455-.3684.5709-.6792.9763-.9267.1199-.0806.3083-.1209.5481-.1209.2854 0 .5366.1151.765.3396.2226.2245.3768.5065.4567.8289 0 .5352-.0628.9842-.1827 1.3526-.04.1669-.2055.5756-.491 1.2317-.1199.3684-.2854.8116-.491 1.3239-.2055.5122-.4053 1.1166-.6108 1.8188-.1656.5756-.3083.9843-.4282 1.2318l-1.159 3.8219c-.1655.495-.2055 1.1684-.1199 2.0318.08-.1209.7251-.9325 1.924-2.4347 1.1989-1.4966 2.0896-2.6823 2.6605-3.5399.6508-1.0245 1.7127-2.5268 3.1742-4.4953.6109-.8231 1.3245-1.4793 2.1409-1.9685.3255-.2072.6909-.3108 1.1019-.3108.7707 0 1.3017.3914 1.5871 1.1684.1599.3281.2455.7195.2455 1.1684 0 .3684-.0628.7828-.1827 1.2318-.2055.9037-.4909 1.9685-.8563 3.206-.8564 3.2866-1.3873 6.1818-1.5872 8.6856-.0399.6965-.0228 1.7847.0628 3.2637.491-.04.8564-.265 1.1019-.679.7308-.9846 1.2446-1.7443 1.5301-2.2796 2.078-3.8219 3.951-7.31 5.623-10.4699.08-.1209.349-.5756.794-1.3527l.365-.495c.206-.0806.406-.0806.611 0 .12.0403.183.2072.183.495l-.308.6159c-1.062 2.0548-2.689 5.1342-4.887 9.2382l-.7939 1.6001c-.2055.3684-.4168.777-.6394 1.2317-.2227.449-.4796.9443-.7651 1.4793-.5309.823-1.039 1.439-1.53 1.848-.531.535-1.159.8-1.8954.8z"></path><path d="m121.89 103.795c-.857 0-1.508-.472-1.953-1.416-.405-.944-.611-1.847-.611-2.7106 0-.2878.04-.6792.12-1.1684.326-1.4793.634-2.5844.919-3.3269.771-2.2563 1.976-5.6465 3.603-10.1649.04-.2072.205-.6792.491-1.4159-.04 0-.103-.0403-.183-.1209-.976.495-2.141 1.3526-3.483 2.5902-1.427 1.3526-2.609 2.8146-3.545 4.3744-.205.3281-.388.6159-.548.8634-.166.2475-.308.472-.428.6792-1.142 1.8073-1.936 3.2002-2.381 4.1902-.165.3281-.325.5756-.491.7368-.285.3281-.634.495-1.039.495-.285 0-.542-.0921-.765-.2763s-.377-.4202-.457-.708c-.04-.1208-.062-.3683-.062-.7367 0-.2072.022-.3684.062-.495.04-.2072.132-.6562.274-1.3526.143-.6965.337-1.3124.583-1.8477.16-.4086.588-1.4389 1.284-3.0794l.794-1.7843c.325-.7367.548-1.3353.674-1.7843-.166.1669-.36.3166-.583.4605-.222.1439-.439.3166-.639.5238-1.342 1.272-2.427 2.5441-3.237 3.8219l-1.77 2.7743c-.365.6561-.959 1.6001-1.77 2.8319-.08.1208-.428.6561-1.039 1.6001-.491.5756-1.039.7828-1.65.6159-.571-.1612-.919-.5929-1.039-1.2951-.08-.495-.12-.8404-.12-1.0476 0-.495.08-1.1511.246-1.9685.531-2.8721 1.587-5.9746 3.18-9.3014.119-.2878.348-.6792.673-1.1685.366-.3684.731-.5525 1.102-.5525.08 0 .246.0402.491.1208.571.2878.817.7598.731 1.416-.08.6158-.206 1.1914-.366 1.7267l-1.587 5.1112c-.285.7368-.451 1.439-.491 2.0952l.548-.7368 1.102-1.6001 3.117-4.2478c.491-.6965 1.091-1.3469 1.805-1.9398.713-.5928 1.13-.9324 1.25-1.0188.205-.1669.548-.328 1.039-.495.445-.0805.856-.023 1.222.1842.365.2072.633.5353.793.9843.12.4086.183.8.183 1.1684s-.08.9267-.246 1.6635c-.165.4547-.262.8633-.308 1.2317l2.015-2.4002c1.428-1.7267 2.707-2.9988 3.848-3.8219.691-.4489 1.302-.777 1.833-.9842.325-.1209.634-.1842.919-.1842.491 0 .897.1727 1.222.5238s.508.8116.548 1.3871c0 .9037-.103 1.6405-.308 2.216-.406 1.2721-1.062 3.1427-1.953 5.6063-1.387 3.9427-2.323 6.9415-2.809 8.9906-.165.6559-.245 1.1509-.245 1.4789 0 .288.023.513.063.68.12-.081.245-.173.365-.277.12-.103.263-.218.428-.339-.04.08.223-.248.794-.985l1.222-1.5364c2.038-3.0794 4.259-7.1891 6.662-12.3233l.308-.5525c.246-.3684.508-.472.794-.3109.245.2072.308.4317.183.6792l-.183.4317-.548 1.1685c-1.587 3.3671-2.912 6.0551-3.974 8.0697-1.062 2.0145-2.181 3.8391-3.362 5.485-.491.697-1.062 1.336-1.713 1.911-.531.409-1.062.616-1.587.616z"></path><path d="m131.686 96.6466c-.753-.6562-1.21-1.5829-1.375-2.7743-.12-1.5599.102-3.3039.673-5.2379.571-1.9282 1.365-3.5341 2.381-4.8061.445-.6562 1.102-1.3757 1.952-2.1584.897-.8231 1.913-1.2951 3.055-1.416h.365c.446 0 .771.023.976.0633.406.1209.731.3684.977.7368.245.3684.325.7828.245 1.2317 0 .3684-.04.6389-.12.8001-.936 2.4635-2.523 4.3342-4.767 5.6062-.245.2072-.691.3914-1.341.5526-.366.1208-.571.328-.611.6158-.326.9843-.491 1.911-.491 2.7744 0 .495.063 1.0245.182 1.6001.12.495.309.8288.548 1.0188.24.1899.634.3166 1.159.4029 1.262.1209 2.57-.2648 3.911-1.1684.936-.6159 2.25-1.7268 3.939-3.3269 1.69-1.6002 3.026-2.9758 4.003-4.127l.856-.9842.428-.3109.183-.0633c.12 0 .234.0518.337.1554.102.1036.131.236.091.403l-.308.4316c-1.017 1.5196-2.524 3.2463-4.522 5.1746-1.998 1.9282-3.745 3.3671-5.252 4.3111-1.508.9843-3.038 1.4793-4.585 1.4793-1.182 0-2.146-.3281-2.9-.9843zm6.201-10.7807c1.016-1.2318 1.57-2.3599 1.649-3.3902-.039.0403-.091.0633-.154.0633-.062 0-.114.023-.154.0633-.165.0403-.365.1669-.611.3684-1.547 1.5598-2.729 3.1024-3.545 4.6219-.04.0403-.12.2245-.246.5526 1.017-.2878 2.039-1.0476 3.055-2.2793z"></path><path d="m159.227 103.611c-.451 0-.885-.132-1.313-.403-.428-.264-.782-.644-1.067-1.139-.451-.697-.634-1.48-.549-2.343.08-1.7671.223-3.3442.429-4.7428.285-2.1757.919-4.8868 1.895-8.1331l.308-.8633-.182-.0634c-.12.2475-1.627 2.2909-4.522 6.13-2.894 3.8392-4.584 5.9228-5.07 6.2509-.245.2072-.571.3108-.976.3108-.691 0-1.222-.3108-1.587-.9267s-.548-1.3526-.548-2.216c0-.7367.103-1.5195.308-2.3426.651-2.8319 1.57-5.6235 2.752-8.3805.08-.1612.245-.472.491-.921.245-.4489.491-.8403.731-1.1684.245-.3684.571-.6792.976-.9267.12-.0806.308-.1209.548-.1209.286 0 .537.1151.765.3396.223.2245.377.5065.457.8289 0 .5352-.063.9842-.183 1.3526-.04.1669-.205.5756-.491 1.2317-.12.3684-.285.8116-.491 1.3239-.205.5122-.405 1.1166-.611 1.8188-.165.5756-.308.9843-.428 1.2318l-1.159 3.8219c-.165.495-.205 1.1684-.12 2.0318.08-.1209.725-.9325 1.924-2.4347 1.199-1.4966 2.09-2.6823 2.661-3.5399.651-1.0245 1.712-2.5268 3.174-4.4953.611-.8231 1.324-1.4793 2.141-1.9685.325-.2072.691-.3108 1.102-.3108.77 0 1.301.3914 1.587 1.1684.16.3281.245.7195.245 1.1684 0 .3684-.062.7828-.182 1.2318-.206.9037-.491 1.9685-.857 3.206-.856 3.2866-1.387 6.1818-1.587 8.6856-.04.6965-.023 1.7847.063 3.2637.491-.04.856-.265 1.102-.679.731-.9846 1.244-1.7443 1.53-2.2796 2.078-3.8219 3.951-7.31 5.623-10.4699.08-.1209.349-.5756.794-1.3527l.365-.495c.206-.0806.406-.0806.611 0 .12.0403.183.2072.183.495l-.308.6159c-1.062 2.0548-2.689 5.1342-4.887 9.2382l-.794 1.6001c-.206.3684-.417.777-.639 1.2317-.223.449-.48.9443-.765 1.4793-.531.823-1.04 1.439-1.53 1.848-.531.535-1.159.8-1.896.8z"></path><path d="m170.223 103.3c-.571 0-1.056-.27-1.467-.8-1.102-1.312-1.627-2.7511-1.587-4.3109.08-1.7671.245-3.3269.491-4.6795.405-2.4232.947-4.8868 1.621-7.3906.674-2.5037 1.068-3.983 1.193-4.4377l.491-1.7268c.08-.2072.16-.5353.246-.9842-1.753.4086-2.484.5756-2.198.495l-3.3.7425-.611.1842c-.365-.0806-.548-.2475-.548-.495v-.0633c0-.1612.08-.3281.245-.4951.166-.1208.406-.2244.731-.3108 2.118-.5353 3.911-.9439 5.378-1.2317.286-.0403.497-.1209.64-.2475.142-.1209.274-.3281.399-.6159.691-2.0145 1.547-4.0867 2.564-6.2221.205-.4087.405-.777.61-1.1109.206-.3281.366-.6158.491-.8633.286-.3281.508-.6792.674-1.0476.445-.6159.959-.8231 1.53-.6159.365.2878.548.6159.548.9843 0 .0805-.04.2878-.12.6158-.08.4087-.171.7828-.274 1.1109s-.194.6159-.274.8634l-1.952 5.5429-.183.8001c1.262-.1612 3.3-.2878 6.109-.3684.205 0 .508.0403.913.1209.326.2072.468.4316.428.6791-.04.167-.119.2648-.245.3109-.12.0403-.263.0633-.428.0633-1.953 0-4.134.1842-6.537.5525-.286 0-.497.0518-.64.1554-.142.1037-.257.2994-.336.5871-.206.8231-.406 1.5426-.611 2.1585-.451 1.6404-.731 2.734-.857 3.2636-1.261 4.3111-2.283 8.9906-3.054 14.0443-.08.5755-.12.9842-.12 1.2317 0 .5358.08 1.0248.246 1.4788.039.288.131.449.274.495.142.041.314-.023.519-.184 1.142-.863 2.843-3.1079 5.104-6.7456s3.717-6.3142 4.368-8.0409c.245-.6159.57-.9267.976-.9267.205 0 .342.0921.428.2763.08.1842.08.4432 0 .7713-.405 1.272-1.233 3.016-2.472 5.2378-1.245 2.216-2.575 4.3457-4.002 6.3775-1.427 2.0323-2.649 3.4363-3.665 4.2193-.651.368-1.222.552-1.713.552z"></path></g><path d="m58.0046 124.931c-.3425-.035-.6337-.058-.8849-.069-.2512-.012-.491-.018-.7136-.018h-6.0289l-.0513-.656 1.0904-.247c.0228-.058.04-.196.0457-.409s.0114-.501.0171-.869.0114-.812.0114-1.33v-3.367c0-.529 0-.984-.0114-1.352-.0114-.369-.0114-.662-.0171-.875s-.0229-.34-.0457-.392l-1.0904-.247.0513-.656h5.6406c.1656 0 .3312 0 .5082-.006.1769-.006.3653-.017.5709-.029.2055-.011.4167-.023.6394-.034l.3539 2.319-.7935.127-.5824-1.491c-.0799-.023-.1826-.04-.2968-.046-.1199 0-.2398-.006-.3711-.006h-2.021c-.2227 0-.4168 0-.5881.006s-.3368.023-.5024.046c0 .046 0 .178-.0114.397-.0057.219-.0114.472-.0171.754s-.0114.564-.0114.852v4.835c0 .224 0 .455.0114.702.0114.248.0114.455.0171.645s.0114.316.0114.391c.1656.012.3311.023.5081.035.177.011.3768.017.5995.017h1.7413c.2569 0 .4681 0 .6337-.012.1655 0 .2911-.017.3882-.028.0971-.012.1713-.023.2284-.035l.9134-1.681.7708.162-.7194 2.567zm-1.9354-3.719-.2112-1.203c-.0571-.023-.1599-.04-.2969-.051-.1427-.012-.3026-.018-.491-.018h-1.353c-.1542 0-.314.006-.491.018-.177.011-.3711.023-.5823.034v-.973c.2112.012.4053.024.5823.029.177.006.3425.012.491.012h1.353c.1884 0 .354-.006.491-.017.1427-.012.2398-.024.2969-.035l.2112-1.22h.7536v3.436h-.7536z" fill="#cccbcd"></path><path d="m69.4857 124.896-3.8309-9.549-.8792-.247.0343-.657h3.6024l.0343.657-1.0733.247 3.0201 7.776h-.3311l2.8488-7.776-1.2274-.247.0342-.657h3.2143l.0342.657-.8792.247-3.8822 9.549z" fill="#cccbcd"></path><path d="m89.2906 124.931c-.3426-.035-.6337-.058-.8849-.069-.2512-.012-.491-.018-.7137-.018h-6.0288l-.0514-.656 1.0905-.247c.0228-.058.0399-.196.0456-.409s.0115-.501.0172-.869.0114-.812.0114-1.33v-3.367c0-.529 0-.984-.0114-1.352-.0115-.369-.0115-.662-.0172-.875s-.0228-.34-.0456-.392l-1.0905-.247.0514-.656h5.6406c.1656 0 .3311 0 .5081-.006s.3654-.017.5709-.029c.2056-.011.4168-.023.6394-.034l.354 2.319-.7936.127-.5823-1.491c-.0799-.023-.1827-.04-.2969-.046-.1199 0-.2397-.006-.371-.006h-2.0211c-.2226 0-.4167 0-.588.006s-.3369.023-.5024.046c0 .046 0 .178-.0114.397-.0057.219-.0115.472-.0172.754s-.0114.564-.0114.852v4.835c0 .224 0 .455.0114.702.0115.248.0115.455.0172.645s.0114.316.0114.391c.1655.012.3311.023.5081.035.177.011.3768.017.5995.017h1.7412c.2569 0 .4682 0 .6337-.012.1656 0 .2912-.017.3883-.028.097-.012.1712-.023.2283-.035l.9135-1.681.7707.162-.7193 2.567zm-1.9354-3.719-.2113-1.203c-.057-.023-.1598-.04-.2968-.051-.1428-.012-.3026-.018-.491-.018h-1.3531c-.1541 0-.314.006-.491.018-.1769.011-.371.023-.5823.034v-.973c.2113.012.4054.024.5823.029.177.006.3426.012.491.012h1.3531c.1884 0 .354-.006.491-.017.1427-.012.2398-.024.2968-.035l.2113-1.22h.7536v3.436h-.7536z" fill="#cccbcd"></path><path d="m104.682 122.341v-4.024c0-.708-.005-1.272-.017-1.692-.011-.42-.023-.731-.034-.932-.011-.202-.023-.317-.034-.357l-1.176-.248.034-.656h3.323l.051.656-1.073.248c0 .034-.012.155-.029.357-.017.201-.034.512-.046.932-.011.42-.017.984-.017 1.692v5.376c0 .397.006.8.017 1.215h-.787l-6.4346-8.807h.354v4.818c0 .708.0114 1.278.0285 1.709.0171.432.0343.743.0514.939.0171.195.0285.316.0285.362l1.1932.248-.051.656h-3.3402l-.0513-.656 1.0733-.248c.0114-.046.0228-.167.0342-.362.0114-.196.0229-.507.0343-.939.0114-.431.0171-1.001.0171-1.709v-3.068c0-.541 0-.984-.0114-1.329-.0057-.34-.0171-.611-.0286-.795-.0114-.19-.0285-.316-.0513-.391l-1.0734-.248.0514-.656h2.3693l5.8866 7.903h-.297z" fill="#cccbcd"></path><path d="m122.209 114.369.389 2.855-.754.086-.737-2.003c-.091-.023-.199-.04-.325-.046-.126 0-.234-.012-.325-.012h-1.108c-.2 0-.388.006-.559.018 0 .092 0 .316-.012.661-.006.352-.011.755-.011 1.215v3.759c0 .754.005 1.41.017 1.957.011.546.017.909.017 1.07l1.496.213-.052.691h-4.43l-.034-.691 1.479-.213c0-.167.005-.524.017-1.07.011-.547.017-1.203.017-1.957v-4.968c0-.351-.006-.57-.017-.662-.154-.011-.326-.017-.526-.017h-1.176c-.091 0-.199 0-.314.012-.12.005-.222.023-.314.046l-.719 2.02-.771-.104.388-2.855c.143.012.28.023.423.029.143 0 .28.012.411.017l.411.018c.143 0 .28.005.423.005h5.041c.142 0 .279 0 .422-.005.143-.006.28-.012.411-.018.137 0 .274-.011.411-.017.143-.006.28-.017.423-.029z" fill="#cccbcd"></path><path d="m132.389 125c-.503 0-1.034-.064-1.582-.196s-.993-.293-1.336-.495l-.085-2.268.736-.069.491 1.577c.28.19.594.334.931.432s.708.15 1.107.15c.588 0 1.056-.144 1.405-.432.354-.288.525-.673.525-1.163 0-.414-.126-.759-.371-1.036-.246-.276-.565-.518-.959-.725s-.811-.409-1.251-.61c-.439-.202-.856-.426-1.25-.679-.394-.254-.713-.57-.965-.939-.251-.374-.376-.834-.376-1.392 0-.559.159-1.065.473-1.497s.754-.771 1.319-1.019c.565-.247 1.205-.374 1.936-.374.302 0 .599.017.884.046.286.029.549.075.788.133.24.057.463.138.657.23l.143 2.199-.737.069-.491-1.485c-.365-.236-.845-.357-1.439-.357-.593 0-1.09.149-1.45.443-.359.293-.536.685-.536 1.168 0 .426.125.777.376 1.065.252.282.577.535.965.754.394.219.811.426 1.251.628.439.201.856.426 1.25.673.394.248.714.553.965.909.251.363.377.806.377 1.336 0 .529-.16 1.053-.486 1.496-.319.444-.765.789-1.336 1.048-.571.253-1.216.38-1.941.38z" fill="#cccbcd"></path></g></svg>