<svg xmlns="http://www.w3.org/2000/svg" xmlns:xlink="http://www.w3.org/1999/xlink" fill="none" height="108" viewBox="0 0 159 108" width="159"><clipPath id="a"><path d="m0 0h159v108h-159z"></path></clipPath><g clip-path="url(#a)"><path d="m133.385 13.6511-1.469-.9549-1.919.8703-1.816 1.1289-2.133.3282-1.959.7758-1.87 1.0046-1.042 1.1537.248 2.0091.253 2.0092-.04 2.024.293 2.1832-2.217.8106-2.237.3033-2.099 1.1637.01-2.1434.343-1.9494-.025-1.9693.258-.6266-1.756-.4476-2.093.4625-1.801 1.1637-1.984.731-2.089 1.0841-.848-2.6108-.421-2.5015 1.746-1.3128 1.989-1.0344 1.815-1.2881 1.806-1.3029.159-1.5019-.72-1.7903-.704-1.79525-.729-1.78533-.447-1.89971-.853-1.74555-.565-.88023-1.201.08952-1.448 1.42229-1.493 1.35765-1.836.89018-1.627 1.18359-1.4729 1.39743-.7738 1.38251.8085 1.9246.9372 1.8698.958 1.8649.446 1.8649-1.8451 1.1886-1.9693 1.3179-1.9197 1.3228-.9424-1.9644-.9524-2.0091-.5705-2.1782-1.1012-.7012-1.0317.5073-1.2848 1.3129-1.5476 1.0542-1.3145 1.293-1.0913 1.4124-1.2103-1.5814-1.25-1.6362-1.2253-1.656 1.0517-1.6511 1.1706-1.5516 1.5278-1.2731 1.1111-1.6063.9028-1.77037-.0149-1.25321-1.0466-1.6063-1.5278-1.14381-1.3889-1.28305-1.1161-1.54662-1.0962-1.56651437-1.9247.19892237-1.1161 1.541652-1.5228 1.14878-1.1161 1.54662-1.6319 1.05429-1.1509 1.51181-.1438 1.63116 1.498 1.29797 1.1756 1.54667 1.1211 1.5963.9821 1.7058 1.3443 1.4819-1.3294 1.6262-1.3988 1.5218-1.0119 1.7803-1.2649-1.293-1.1459-1.4521-1.5079-1.0941-1.3492-1.2532-.9872-.4525-.7291.7957-1.002 1.9842-.7887 2.0837-1.0169 2.0887-1.9197-1.5715-1.9841-1.2979-1.9495-1.114.4911-1.8997.7242-1.9594.8929-1.8947.6746-1.9793-.3323-1.20847-1.4633-1.4024-1.7163-1.05429-1.6221-1.18359-1.622-1.18856-1.5873-1.23829-1.0219-.11438-.9226.60671-.6597 1.81019-.3274 1.9395-.8879 1.72565-1.0119 1.68093-.5903 1.845.6845 1.3526 1.7857 1.3279 1.6221 1.5665 1.994 1.0344 1.9445 1.2333-.8184 2.4865-.8235 2.3523-1.9891-.5123-1.7956-1.1686-2.0487-.5819-1.7857-1.2035-1.2599.383-.2133 1.0294v1.9644l-.0199 1.9693.1736 2.1384-2.1925-.8802-2.1577-.5321-2.0139-.9996.0992-2.044v-2.019l-.0546-2.0241-.0546-2.024-.4811-1.0941-1.8403-1.0692-1.9941-.6863-2.0089-.6514-1.9396-.8355-1.9395-.8355-1.2946.0746-.4514 1.1786.2083 1.9594-.3571 1.9644-.0248 1.9643.1141 1.9644.3422 1.9644.5953 1.1587 2.1081.925 2.2967.3332 2.0883 1.0045 2.4157.3332-.1835 2.0887.119 1.9395.4961 1.9196-.1488 1.9594.8531.8951 1.6965.9996 1.8254.6764 1.7709.8305 1.9544.4177-.0893 2.1334.1091 2.1136-.3125 2.1136.8978 1.283 1.7808.4078 1.4832 1.104 1.6617.6962 1.751.4824.3919.5371.4613.4227.1289.7112 1.8354.9399 1.8304.3332 1.6518.8454 2.3165.4476 2.3314.3481 2.3214.3978 2.004.0349 1.9643.4624 1.999.01 1.9941.0298 1.9891.3133 1.9991.0199 1.999-.189 1.9941.0349 2.004.1442 1.9692-.4725 1.9941-.0746 1.9445-.5321 1.999-.0696 2.0238.0348 2.2818-.5122 2.2868-.4874 2.2519-.6266 1.692-.5122 1.577-.8206 1.344-1.1835.958-.6814 1.587-.8454 1.87-.1094 2.093-.7459 2.024-.9201.724-1.2383.09-.0198-.457-2.1136.333-2.1136-.248-2.2478 1.929-.8106 1.94-.3779 1.78-.7908 1.88-.537.467-1.2035.411-1.9196-.193-1.9594.417-1.9246.074-1.9494 2.153-.8106 2.207-.6167 2.287-.378 2.168-.7658.798-1.3228-.228-1.9594.104-1.9644.248-1.9643.085-1.9644-.03-1.9644-.447-.3729zm-95.3141 11.7215-1.8403-.925-1.8254-.4675-1.9147-.2039-1.5377-.9449.0496-1.651-.2381-1.7953.2926-1.7953-.2381-1.7107 1.8255.5619 1.8055.8256 1.9544.4674 1.9445.8703-.5109 2.2827.3869 2.1831-.1538 2.3075zm77.3471 11.5773.288-2.1285-.144-1.9743-.372-2.1235 2.351-.3879 2.079-.7559 1.994-.9797-.412 1.9793.064 2.0091.05 2.0588-1.984.6714-1.801 1.0045zm-9.008 8.4144-.129 1.3278-1.141-.7957-1.538-.3581-1.17-.6365 1.597-.741 2.054-1.293.327 2.4915zm-57.5056-13.4422 1.6617 1.3427 1.751.8952 1.9891.7608-.6299 2.228-.0992 1.9793-1.4683-.3631-1.5328-.8205-1.6319-.3233-.134-1.8052.1389-1.8649-.0496-2.024zm13.3087-.1243-1.0268 1.8649-.4465 1.835-2.0585-.9349-1.6121-1.5815.2728-2.2378.0099-2.3921 1.3889 1.3975 1.6766 1.0145 1.7907 1.0294zm-6.3146 8.5685.5754-2.3821.0149-2.2179 1.9693.91 1.5526 1.5516-.0298 2.2727.2381 2.3871-1.9395-1.5516-2.3859-.9648zm.0298 2.5363 2.4008 1.8798-1.751.4675-.8234.4724.1785-2.8197zm6.6419-2.8645 1.3393 1.7157 1.503 1.2383-3.0159.6515.4365-1.7903-.2629-1.8201zm4.1816-13.6311.9276 1.6958 1.126 1.3328 1.3939 1.288-1.1409 1.7157-.4762 1.6162-1.8403-1.3725-1.5675-1.676.7788-2.1483.8036-2.4517zm1.25 10.329-.6547 2.3175-.0844 2.1831-1.622-1.109-1.1855-1.7654-1.4435-1.3079.382-1.7555.6349-1.5317 1.8353 1.4521 2.1429 1.5168zm1.9445 2.2876 1.0814 1.8003 1.2897 1.3477-2.9415.358.6349-1.6958zm6.0765-14.0041.8978 1.8052 1.1508 1.4372 1.4236 1.4273-1.5972 2.029-1.0218 2.034-1.2897-.9847-1.1757-1.4322-1.4633-1.0046.888-1.7505 1.1508-1.661 1.0416-1.8948zm9.9555 0 .8482 2.0141 1.1508 1.661 1.4236 1.6709-1.7708 1.0095-1.3741 1.2135-1.2153 1.3924-.8879-2.2876-1.2996-2.0141.8929-1.5466 1.1508-1.4372 1.0814-1.6809zm-.0596 11.1894 1.6965-1.0096 1.3046-1.293 1.3492-1.5516.3869 2.0688.6548 1.6113-1.0715 1.5964-1.5327 1.3626-1.0566 1.6461-.8829-2.1235-.8532-2.3125zm-2.3809-.3432-1.1657 1.4522-.6945 1.5864-.6696 1.8499-.5804-1.8947-.7838-1.5416-1.002-1.4323 1.4386-2.0737.9226-2.2429 1.2599 2.0638 1.2749 2.2379zm-7.4505.3432-1.1608 2.203-.5903 2.1981-1.4533-1.2631-.9425-1.8649-1.255-1.4472.4316-1.6958.744-1.4621 1.2302 1.0095 1.498 1.0693 1.4881 1.2532zm1.4286 2.5362.5357 1.7307.8135 1.3327-2.5993.1393.9673-1.4671.2778-1.7306zm6.9792 0 .2728 1.7157.5903 1.3627-2.5844-.015 1.1905-1.3477.5258-1.7157zm7.5695.2785-.0694 1.7903.2976 1.5019-2.9167-.2785 1.6369-1.2482 1.0516-1.7605zm3.1995-12.6166.6845 2.5064 1.0516 2.1285-1.5625 1.8251-1.999 1.1885-.4713-1.6212-.9028-1.6859 1.2798-1.2184.8929-1.5068 1.0317-1.6162zm-.6449 15.1032.0496-2.4617-.372-2.1981 1.632-1.9047 2.0635-1.2433.4018 1.661.8383 1.7456-1.7113 1.1985-1.384 1.5516-1.5179 1.6461zm4.891-1.6262.0248 1.8848.367 2.1632-1.7361-.2387-1.5675-.5371 1.5675-1.4521 1.3443-1.8152zm.2926-8.0912 1.8652-.925 1.503-1.2482 1.622-1.477-.119 2.5959.268 2.2379-1.741 1.3775-1.89.9847-.61-1.6411zm13.3682-2.3722-2.103.7609-1.796 1.1538-1.87 1.4123.124-2.1285-.193-1.8748-.437-1.85 2.252-.6365 2.069-1.0792 2.133-1.0841-.139 1.7953.188 1.7157-.233 1.8102zm-12.004 15.0137.05-.1591.109-1.7555-.129-1.8052.704-2.402 1.885-1.2135 1.801-1.4521-.1 2.3821.377 2.3125-1.929 1.7256-1.463 1.0842-1.315 1.288zm6.994-5.0079.174-2.2876-.288-2.0588 1.458-1.2532 1.94-.567 1.478-.9747.149 1.6511-.253 1.8698.243 1.8053-1.508.6863-1.657.4475-1.736.6863zm23.18-23.7961-.322 1.9495.099 1.7952.377 1.7953-.432 1.6561-1.681.4823-1.727.7957-1.885.2885-1.646.7658-.224-2.0887.035-2.1782-.312-2.3174 1.994-.8007 2.023-.2834 1.677-1.1538 2.014-.7012zm-30.075-4.7642 1.831-.89014 1.463-1.19353 1.304-1.4223 1.578-.7012.729 2.09863 1.076 2.14344.566 2.1732-1.28 1.0195-1.399 1.2034-1.567.9648-1.622 1.3129-.968-2.3025-.431-2.3324-1.275-2.0738zm1.627 9.9661.422 2.576.808 2.2379-1.448 1.5217-2.014.9002-1.5526 1.2383-.7292-1.3875-.4266-1.7406-.8681-1.472 1.8056-1.3428 2.0039-1.1388 2.009-1.3974zm-11.0317-2.0788.5208 1.9743.8532 1.666 1.126 1.6809-1.5328 1.298-1.1012 1.467-.9127 1.6163-.8383-1.8997-1.245-1.6461-1.26-1.7008 1.5229-1.4124 1.2202-1.6311 1.6518-1.4124zm-15.9725-10.83629 1.5774-1.12888 1.1657-1.36262.9673-1.55657 1.4187-.89018 1.0665 1.2184 1.4087 1.12392 1.0268 1.49689 1.3492 1.09407-1.0665 1.64608-1.3145 1.53168-1.0119 1.7704-1.4583 1.6561-1.0417-1.9793-1.5972-1.3129-1.2401-1.58641-1.255-1.73062zm5.1291 10.14999.997 1.9196 1.2649 1.5467 1.5377 1.5267-1.622 1.5217-1.1855 1.6561-.9921 1.8002-.9475-1.8301-1.3393-1.5516-1.3591-1.6013 1.2798-1.5963.9524-1.7704zm-10.8434.6863 1.2847 1.7704 1.4981 1.3577 1.7659 1.3129-1.5278 1.646-1.0864 1.7456-.8829 1.8748-.8681-1.646-1.25-1.3577-1.2699-1.3974.8582-1.7108.4911-1.8151.992-1.7754zm-4.9604 5.8434-1.0714 1.6013-.6052 1.666-.5407 1.9245-1.6171-1.7206-1.7212-1.2881-1.8701-1.094.9921-2.2578.4712-2.3324 1.9544 1.0543 1.8949 1.3079 2.1131 1.1438zm-13.4426-11.4281 1.2401-2.1782.754-2.26775.625-2.50145 1.4881 1.52673 1.5228 1.11397 1.6667.92001 1.2401 1.17369-.6796 2.0439-.6944 2.213-.9623 2.0986-1.6618-.8056-1.4831-1.0841-1.2451-1.4522-1.8204-.8056zm3.502 13.6262-.5704 1.9494-.0943 1.8848.0248 2.1185-1.8155-1.4969-1.8452-1.0692-1.9644-.8603.1935-1.7307-.2877-1.7007-.2331-1.7903 2.1677.9946 2.247.6365 2.1875 1.0643zm-8.6608 10.15-1.9197-1.104-1.9494-.6416-2.1578-.4674.3076-2.1583-.1191-1.9992-.3621-1.9892 1.9742 1.0294 2.138.5769 2.1825.6067-.124 2.029.248 1.9793-.2232 2.1284zm7.1132 10.1649-1.5923-1.0493-1.627-.5968-1.8602-.4525.4514-2.4766-.1041-2.1633 2.252.5968 2.1677.9996.1091 1.5317.1934 1.7306v1.8798zm52.6291 3.1032-1.656.4774-1.548.6813-1.548.8156h-2.3408l-2.2521.3481-2.242.5073-2.3066-.0895-2.2719.3282-2.2818.2785-2.2966-.0448-2.2917.2984-2.2967-.0796-1.9444-.5321-1.9743.373-1.9593-.1044-1.9395-.373-1.9643-.0348-1.9048-.5769-1.9842.0995-2.1677-.736-2.2817-.0697-2.1677-.6415-1.6518-.1989-1.5278-.6515-1.0715-1.0394-.2777-.1243.0992-.3332-.0596-.0696-.0297.0497-.3671-.0547.0645-.2188.1538-.2188.1984-.2387 1.4087-.5421 1.4584-.7658 1.6419-.189 2.2123-.3879 2.1578-.6913 2.2024-.5371 1.9841.1393 1.9445-.1741 1.9296-.3978 1.9742.368 1.9494-.0945 1.9495-.1989 1.9544-.194 1.9494.3879 1.9494-.0248 1.9544.0149 1.9544.0298 1.9544.0498 1.9494.0994 1.9147.5272 2.2719.0795 2.2768.0647 2.2474.3382 1.567.6912 1.573.5023 1.503.552.372.2188.208 1.7306-.323.5719zm1.345-2.1434.535-1.9246.105-1.8151-.09-2.7551 2.61-.373 2.197-.8255.134 2.1832-.283 2.3025-2.058 1.1786-1.454 1.0643-1.696.9697z" fill="#ccaf66"></path><g fill="#3c3a40"><path d="m16.9347 90.8778c-.1438-.4078-.1934-.8256-.1587-1.2483.1389-1.4571.4067-2.8545.7986-4.2072.3869-1.3477.6201-2.1484.6895-2.397l.6349-2.1832c.4961-1.845 1.2748-4.61 2.3364-8.305l.1587-.4277-2.2272.4774c-2.4802.4973-4.5735.9598-6.2898 1.3825-1.7163.4277-3.40775.925-5.06948 1.492-.39187.1442-.68949.4276-.90279.8504-1.0268 2.6257-2.42562 6.5992-4.19152 11.9204l-.15873.6365c-.14385.2835-.31747.3879-.53076.3183-.24802-.179-.38691-.3183-.42659-.4277v-.2685c0-.2487.01984-.4426.05456-.5868l.42659-1.492c.28274-1.1338.56549-2.1284.84823-2.9788l2.28177-6.7087.15873-.3183-.79862.2139c-.42659.179-1.50299.6216-3.23912 1.3328-.10417.0696-.26787.1442-.476201.2138h-.213297c-.213296 0-.386909-.0895-.53076-.2685-.0694455-.1393-.10416815-.2487-.10416815-.3183 0-.179.08928685-.3183.26786015-.4277.213297-.2138.441474-.3879.689493-.5321l2.018873-.9598c.2133-.1045.58533-.2735 1.11609-.5073.53076-.2287 1.00695-.4177 1.43355-.557.49603-.2138.86806-.5868 1.11608-1.1189 1.48811-3.3369 3.02583-6.2263 4.61811-8.673 2.0883-3.1927 4.2312-5.6395 6.4237-7.3452 1.0268-.7808 1.9445-1.4024 2.758-1.8649.9176-.5321 1.8601-.8007 2.8125-.8007.2133 0 .5655.0348 1.0615.1044 1.5229.2487 2.4753 1.1687 2.8671 2.77.1786.6366.2282 1.3278.1588 2.0738-.1042 2.024-.5159 4.3315-1.2203 6.9175l-.6895 2.6059 1.4336-.1591h.744c.2828.0348.4762.2287.5853.5868v.1044c0 .2487-.124.4625-.372.6366-.1438.0696-.3175.1442-.5308.2138l-1.9643.5322c-.3521.0348-.5853.2685-.6895.6912-1.0615 3.4762-1.8403 6.087-2.3363 7.8226l-.9573 3.7249c-.4266 1.7007-.7639 2.9639-1.007 3.7795-.248.8852-.5754 1.8201-.9822 2.7948-.4067.9748-.8581 1.4621-1.3541 1.4621-.5655 0-.9227-.2039-1.0616-.6117zm-8.01595-17.5351 1.27485-.4277c.4613-.179 1.1855-.4077 2.1776-.6912 3.5764-.8852 6.3691-1.5267 8.388-1.9146.5307-.1045.9176-.2835 1.1657-.5322.248-.2486.4414-.6365.5853-1.1686l.4762-1.7555c.4613-1.7356.7887-3.0783.9821-4.0182.1935-.94.3274-1.9445.3969-3.0087.0347-.1791.0545-.4625.0545-.8504 0-.3531-.0198-.6217-.0545-.8007-.1042-.7112-.5308-1.0991-1.2749-1.1687h-.5307c-.5308 0-.9574.0895-1.2748.2686-.883.3928-1.4683.6912-1.751.9051-1.4138.8504-2.8126 2.0588-4.1916 3.6204-1.4534 1.6311-2.7431 3.4065-3.874 5.3211-1.131 1.9147-2.23219 4.063-3.29371 6.4401l.74406-.2138z"></path><path d="m34.3258 93.5632c-.6746 0-1.2202-.3929-1.6468-1.1687-.4613-.8155-.7639-1.8997-.9028-3.2474-.0694-.7111-.1042-1.2581-.1042-1.651 0-1.1339.1588-2.5711.4762-4.3117.1389-.7807.3869-1.9494.7441-3.5109l.372-1.7555.1042-.4277-.1042-.0547-1.4335 2.1832-2.7084 3.7248c-.1786.2834-.4613.552-.8482.8006-.3522.2487-.6895.373-1.007.373-.5307 0-.9722-.2685-1.3294-.8006-.3869-.5322-.5654-1.0842-.5307-1.6511 0-.7808.0694-1.472.2133-2.0738.7093-2.4815 1.8601-4.6846 3.4524-6.5992.3869-.4625.9028-.9051 1.5377-1.3328.496-.2835.9574-.4277 1.379-.4277.9921 0 1.7361.5321 2.2322 1.5964l.2133.4774.4266-1.0096.5853-1.4919c.4613-1.2432.9722-2.5909 1.5377-4.0431.9921-2.3771 2.1925-4.6995 3.6112-6.9722.1388-.2487.5307-.8156 1.1656-1.7008.2133-.2835.4762-.4973.7937-.6365.1042-.0697.248-.1045.4266-.1045.248 0 .4415.0696.5853.2139.2828.2138.3721.5122.2679.9051-.0347.179-.0893.3182-.1587.4276-.0695.1045-.1241.2139-.1588.3183-.2133.4277-.3522.7659-.4266 1.0096-2.8671 6.2809-4.9207 11.4082-6.1558 15.3816-1.4881 5.0377-2.2818 9.598-2.3909 13.676v.7459c0 .4973.0694.8852.2133 1.1687.3522-.4277.62-.7659.7986-1.0095l1.1161-2.0241c.9573-1.9494 2.0635-3.9486 3.3185-5.9876 1.255-2.0389 1.9891-3.2374 2.2024-3.5905l1.4335-2.3423c.1042-.179.3175-.4277.635-.746.1786-.2486.372-.2834.5853-.1044.1389.1044.1389.3033 0 .5868l-3.8245 6.1766c-1.627 2.6257-3.0059 5.3559-4.1419 8.1956-.4266.8852-.7242 1.4919-.9028 1.8102-.4613.6713-1.0069 1.0095-1.6468 1.0095zm-5.6796-11.6021c.8135-.8852 1.5675-1.8102 2.257-2.7651.6895-.9598 1.5129-2.1831 2.4702-3.6701.0695-.1044.1042-.2685.1042-.4774-.248-.6415-.4067-1.0294-.4762-1.1736-.2133-.3531-.4415-.5322-.6895-.5322s-.4762.1244-.6895.373c-.3174.3531-.62.8007-.9028 1.3328-1.2053 2.5214-2.0188 4.7344-2.4405 6.654l-.1041.6415.4762-.373z"></path><path d="m45.5313 85.0493c-.9573 0-1.7361-.3879-2.3363-1.1686-.4266-.6018-.6349-1.1886-.6349-1.7555 0-.746.0892-1.5616.2678-2.4468.4266-1.8102 1.1508-3.5657 2.1776-5.2714.1786-.2139.3373-.4327.4762-.6664.1389-.2288.2828-.4327.4266-.6117.2133-.3183.5209-.5669.9276-.746.4068-.179.7887-.2685 1.1409-.2685s.6002.0696.744.2138c.1389.1443.1389.3531 0 .6366-.2132.5321-.5853 1.3825-1.116 2.5561-.3522.7112-.6995 1.4472-1.0368 2.2081-.3373.7658-.5952 1.482-.7688 2.1533-.1786.8852-.2679 1.7207-.2679 2.5015 0 .5669.1935.8504.5853.8504.1042 0 .3026-.0348.5854-.1045.6349-.2138 1.2202-.6017 1.751-1.1686 1.131-1.1687 1.9296-2.4468 2.3909-3.8343l.4762-1.5963c-1.0268-.5321-1.6469-1.2234-1.8602-2.0738-.0694-.3531-.1041-.5868-.1041-.6912 0-.5322.1934-1.0991.5853-1.7008.3175-.3183.6548-.4775 1.007-.4775.4613 0 .8135.2139 1.0615.6366.3869.6763.5853 1.4372.5853 2.2876l-.0546.6913c0 .1044-.0347.3381-.1041.6912.3174.0348.7589.0547 1.3294.0547 1.1309 0 2.1577-.1342 3.0803-.3978.9177-.2686 2.0189-.7211 3.2937-1.3577.1389-.0696.2481-.1044.3175-.1044.2827 0 .4266.1243.4266.373 0 .2138-.124.3929-.372.5321-.8483.6017-1.8602 1.0891-3.0259 1.4621s-2.3909.557-3.6607.557c-.3522 0-.8482-.0349-1.4881-.1045l-1.007 2.8198c-.5655 1.4173-1.4335 2.7152-2.5992 3.8839-.5308.5321-1.2054.9399-2.0189 1.2234-.3175.1442-.7093.2138-1.1657.2138zm5.9475-11.2043c-.0694-.4078-.2331-.8255-.4762-1.2532-.3174.4277-.4762.8504-.4762 1.2781 0 .3183.0893.6017.2679.8504.1786.2486.4266.4426.744.5868.0348-.5669.0199-1.0543-.0545-1.4621z"></path><path d="m58.4333 84.8355c-.0695-.3531-.1042-.6366-.1042-.8504 0-.2487.0198-.4277.0546-.5321.1785-1.0643.5655-2.8894 1.1657-5.4803.3918-1.6312 1.0069-4.078 1.8601-7.3453l.1042-.3182c.1041-.4277.372-.6366.7986-.6366h.1587c.3522 0 .6201.194.7937.5868.0347.0697.1041.3034.2133.6913.1041.3929.1389.7658.1041 1.1189 0 .8156-.0892 1.7207-.2678 2.7153l-.9028 4.0431.5853-.8006c.5655-.746.8681-1.1538.9028-1.2234l3.13-4.0431c.7441-.9946 1.7163-1.8649 2.9217-2.6059.1041-.0348.2926-.1243.5555-.2685.2679-.1393.5209-.2487.7689-.3183.3869-.1045.7589-.0547 1.1161.1591.3522.2139.5506.5321.5853.9598.0694.2835.1042.5321.1042.746 0 .179-.0348.4078-.1042.6912-.1042.3929-.4067 1.2781-.9028 2.6606-.248.6018-.7093.8504-1.379.746-.5307-.2139-.7639-.6565-.6895-1.3328l.2679-1.4919.372-1.4919c-.4613.1442-.9226.4078-1.379.8006-1.2401.9946-2.371 2.1981-3.3978 3.6204-1.2054 1.7008-2.6885 4.2221-4.4594 7.5591-.2133.4277-.372.8504-.4762 1.278l-.3175.5869c-.1041.2486-.2678.4426-.4762.5868-.2133.1392-.4414.179-.6895.1044-.5654-.0696-.9027-.373-1.0069-.9051z"></path><path d="m82.6151 89.5201c-.3918 0-.7688-.1144-1.1409-.3481-.372-.2288-.6795-.557-.9275-.9847-.3919-.6017-.5506-1.2781-.4762-2.024.0694-1.5267.1934-2.8894.372-4.0978.248-1.8798.7986-4.2221 1.6468-7.0269l.2679-.746-.1587-.0547c-.1042.2138-1.4138 1.9793-3.9287 5.2963s-3.9831 5.1173-4.4048 5.4007c-.2133.1791-.496.2686-.8482.2686-.6002 0-1.0615-.2686-1.379-.8007s-.4762-1.1686-.4762-1.9146c0-.6366.0893-1.3129.2679-2.024.5655-2.4468 1.3641-4.8587 2.3909-7.2408.0694-.1393.2133-.4078.4266-.7957s.4266-.7261.6349-1.0095c.2133-.3183.496-.5869.8482-.8007.1042-.0696.2679-.1044.4762-.1044.248 0 .4663.0994.6647.2934.1935.1939.3274.4376.3968.7161 0 .4625-.0545.8504-.1587 1.1687-.0347.1442-.1786.4973-.4266 1.0642-.1042.3183-.248.7012-.4266 1.1438-.1785.4426-.3522.9648-.5307 1.5715-.1439.4973-.2679.8504-.3721 1.0642l-1.0069 3.3021c-.1439.4277-.1786 1.0096-.1042 1.7555.0695-.1044.63-.8056 1.6717-2.1036 1.0416-1.293 1.8155-2.3174 2.3115-3.0584.5655-.8852 1.4881-2.1832 2.758-3.884.5307-.7111 1.1508-1.278 1.8601-1.7008.2827-.179.6002-.2685.9574-.2685.6696 0 1.1309.3382 1.3789 1.0095.1389.2835.2133.6217.2133 1.0096 0 .3182-.0545.6763-.1587 1.0642-.1786.7808-.4266 1.7008-.744 2.77-.7441 2.8396-1.2054 5.3411-1.379 7.5043-.0348.6018-.0199 1.5417.0545 2.8198.4266-.0348.7441-.2288.9574-.5869.6349-.8503 1.0814-1.5068 1.3294-1.9693 1.8055-3.3021 3.4325-6.3158 4.8859-9.046.0695-.1044.3026-.4973.6895-1.1687l.3175-.4276c.1786-.0697.3522-.0697.5308 0 .1041.0348.1587.179.1587.4276l-.2679.5322c-.9226 1.7754-2.3363 4.4359-4.2461 7.9817l-.6894 1.3825c-.1786.3183-.3622.6714-.5556 1.0643-.1935.3879-.4167.8156-.6647 1.2781-.4613.7111-.9028 1.2432-1.3294 1.5963-.4613.4625-1.0069.6913-1.6468.6913z"></path><path d="m105.904 89.6792c-.744 0-1.309-.4078-1.696-1.2233-.353-.8156-.531-1.5964-.531-2.3423 0-.2487.035-.5869.104-1.0096.283-1.2781.551-2.2329.799-2.8744.669-1.9494 1.716-4.8786 3.13-8.7824.034-.1791.178-.5869.426-1.2234-.034 0-.089-.0348-.158-.1044-.849.4276-1.861 1.1686-3.026 2.2378-1.24 1.1687-2.267 2.4319-3.081 3.7796-.178.2834-.337.5321-.476.7459-.144.2139-.268.4078-.372.5868-.992 1.5616-1.6815 2.7651-2.0684 3.6204-.1438.2835-.2827.4973-.4266.6366-.248.2834-.5506.4277-.9028.4277-.248 0-.4712-.0796-.6647-.2387-.1934-.1592-.3273-.3631-.3968-.6117-.0347-.1045-.0546-.3183-.0546-.6366 0-.179.0199-.3183.0546-.4277.0347-.179.1141-.5669.2381-1.1686.124-.6018.2927-1.1339.506-1.5964.1389-.3531.5109-1.2432 1.116-2.6606l.6895-1.5416c.2828-.6366.4762-1.1538.5854-1.5417-.1439.1442-.3125.2735-.506.3979-.1934.1243-.3819.2735-.5556.4525-1.1656 1.0991-2.1081 2.1981-2.8125 3.3021l-1.5377 2.397c-.3175.567-.8334 1.3826-1.5377 2.4468-.0695.1044-.3721.5669-.9028 1.3825-.4266.4973-.9028.6763-1.4336.5321-.496-.1392-.7986-.5122-.9028-1.1189-.0694-.4277-.1041-.7261-.1041-.9051 0-.4277.0694-.9946.2133-1.7008.4613-2.4816 1.379-5.162 2.7629-8.0365.1042-.2486.3026-.5868.5853-1.0095.3175-.3183.635-.4774.9574-.4774.0694 0 .2133.0348.4266.1044.496.2487.7093.6565.6349 1.2234-.0694.5321-.1786 1.0294-.3175 1.4919l-1.3789 4.4161c-.2481.6365-.3919 1.2433-.4266 1.8102l.4762-.6366.9573-1.3825 2.7084-3.6701c.4266-.6017.9474-1.1637 1.5675-1.6759.62-.5122.9821-.8057 1.0863-.8803.1786-.1442.476-.2834.903-.4276.387-.0697.744-.0199 1.061.1591.318.179.551.4625.69.8504.104.3531.159.6913.159 1.0095 0 .3183-.07.8007-.214 1.4372-.144.3929-.228.746-.268 1.0643l1.751-2.0738c1.24-1.4919 2.352-2.591 3.344-3.3021.6-.3879 1.131-.6714 1.592-.8504.283-.1044.551-.1591.799-.1591.426 0 .778.1492 1.061.4525.283.3034.442.7012.476 1.1985 0 .7808-.089 1.4173-.268 1.9147-.352 1.099-.922 2.7152-1.696 4.8437-1.205 3.4066-2.019 5.9975-2.441 7.7679-.143.567-.213.9947-.213 1.2781 0 .2487.02.4426.055.5868.104-.0696.213-.1491.317-.2387.104-.0895.228-.1889.372-.2934-.034.0696.194-.2138.69-.8504l1.061-1.3278c1.771-2.6606 3.701-6.2113 5.789-10.6473l.268-.4774c.213-.3183.441-.4078.689-.2686.214.1791.268.373.159.5869l-.159.3729-.476 1.0096c-1.379 2.9092-2.53 5.2316-3.452 6.9722-.923 1.7406-1.895 3.317-2.922 4.7393-.427.6018-.923 1.1538-1.488 1.6511-.461.3531-.923.5321-1.379.5321z"></path><path d="m114.416 83.5027c-.655-.5669-1.051-1.3676-1.195-2.397-.104-1.3477.089-2.8545.585-4.5255.496-1.666 1.186-3.0535 2.068-4.1525.387-.5669.958-1.1886 1.697-1.8649.779-.7112 1.662-1.1189 2.654-1.2234h.317c.387 0 .67.0199.848.0547.353.1045.635.3183.849.6366.213.3183.282.6763.213 1.0642 0 .3183-.035.552-.104.6913-.814 2.1284-2.193 3.7447-4.142 4.8437-.213.1791-.6.3382-1.166.4774-.317.1045-.496.2835-.531.5322-.282.8504-.426 1.651-.426 2.397 0 .4277.054.8852.159 1.3825.104.4277.267.7161.476.8802.208.1641.55.2735 1.007.3481 1.096.1045 2.232-.2287 3.398-1.0095.813-.5321 1.954-1.4919 3.422-2.8744s2.629-2.5711 3.477-3.5657l.744-.8504.373-.2685.158-.0548c.104 0 .204.0448.293.1343s.114.2039.079.3481l-.268.373c-.883 1.3129-2.192 2.8048-3.928 4.4708s-3.254 2.9092-4.564 3.7248c-1.309.8504-2.639 1.2781-3.983 1.2781-1.027 0-1.865-.2835-2.52-.8504zm5.387-9.3145c.883-1.0643 1.364-2.039 1.434-2.9292-.035.0348-.08.0547-.134.0547-.055 0-.099.0199-.134.0547-.144.0348-.318.1442-.531.3183-1.344 1.3477-2.371 2.6805-3.08 3.9934-.035.0348-.105.1939-.214.4774.883-.2487 1.771-.9051 2.654-1.9693z"></path><path d="m138.345 89.5201c-.392 0-.769-.1144-1.141-.3481-.372-.2288-.679-.557-.927-.9847-.392-.6017-.551-1.2781-.477-2.024.07-1.5267.194-2.8894.372-4.0978.248-1.8798.799-4.2221 1.647-7.0269l.268-.746-.159-.0547c-.104.2138-1.413 1.9793-3.928 5.2963s-3.983 5.1173-4.405 5.4007c-.213.1791-.496.2686-.848.2686-.601 0-1.062-.2686-1.379-.8007-.318-.5321-.477-1.1686-.477-1.9146 0-.6366.09-1.3129.268-2.024.566-2.4468 1.364-4.8587 2.391-7.2408.07-.1393.214-.4078.427-.7957s.426-.7261.635-1.0095c.213-.3183.496-.5869.848-.8007.104-.0696.268-.1044.476-.1044.248 0 .466.0994.665.2934.193.1939.327.4376.397.7161 0 .4625-.055.8504-.159 1.1687-.035.1442-.179.4973-.427 1.0642-.104.3183-.248.7012-.426 1.1438-.179.4426-.352.9648-.531 1.5715-.144.4973-.268.8504-.372 1.0642l-1.007 3.3021c-.144.4277-.179 1.0096-.104 1.7555.069-.1044.63-.8056 1.672-2.1036 1.041-1.293 1.815-2.3174 2.311-3.0584.566-.8852 1.488-2.1832 2.758-3.884.531-.7111 1.151-1.278 1.86-1.7008.283-.179.6-.2685.958-.2685.669 0 1.131.3382 1.379 1.0095.138.2835.213.6217.213 1.0096 0 .3182-.055.6763-.159 1.0642-.178.7808-.427 1.7008-.744 2.77-.744 2.8396-1.205 5.3411-1.379 7.5043-.035.6018-.02 1.5417.055 2.8198.426-.0348.744-.2288.957-.5869.635-.8503 1.081-1.5068 1.329-1.9693 1.806-3.3021 3.433-6.3158 4.886-9.046.07-.1044.303-.4973.69-1.1687l.317-.4276c.179-.0697.352-.0697.531 0 .104.0348.159.179.159.4276l-.268.5322c-.923 1.7754-2.336 4.4359-4.246 7.9817l-.69 1.3825c-.178.3183-.362.6714-.555 1.0643-.194.3879-.417.8156-.665 1.2781-.461.7111-.903 1.2432-1.329 1.5963-.462.4625-1.007.6913-1.647.6913z"></path><path d="m147.899 89.2516c-.496 0-.918-.2338-1.275-.6913-.957-1.1338-1.414-2.3771-1.379-3.7248.069-1.5267.213-2.8744.426-4.0431.353-2.0937.824-4.2221 1.409-6.3854.586-2.1633.928-3.4414 1.037-3.8342l.427-1.492c.069-.179.138-.4625.213-.8504-1.523.3531-2.158.4974-1.91.4277l-2.867.6416-.531.1591c-.317-.0696-.476-.2138-.476-.4277v-.0547c0-.1392.069-.2835.213-.4277.144-.1044.353-.1939.635-.2685 1.841-.4625 3.398-.8156 4.673-1.0643.248-.0348.431-.1044.555-.2138.124-.1044.239-.2835.348-.5321.6-1.7406 1.344-3.5309 2.227-5.3759.179-.3531.352-.6714.531-.9598.178-.2835.317-.5321.426-.746.248-.2834.442-.5868.586-.9051.387-.5321.833-.7111 1.329-.5321.317.2487.476.5321.476.8504 0 .0696-.035.2487-.104.5321-.069.3531-.149.6764-.238.9598-.089.2835-.169.5322-.238.746l-1.697 4.7891-.158.6912c1.096-.1392 2.867-.2486 5.307-.3183.179 0 .442.0348.794.1045.283.179.407.3729.372.5868-.035.1442-.104.2288-.213.2685-.105.0349-.229.0547-.372.0547-1.697 0-3.592.1592-5.68.4775-.248 0-.432.0447-.556.1342s-.223.2586-.292.5073c-.179.7111-.352 1.3328-.531 1.8649-.392 1.4173-.635 2.3622-.744 2.8197-1.096 3.7248-1.984 7.7679-2.654 12.1343-.069.4973-.104.8504-.104 1.0642 0 .4625.069.8852.213 1.2781.035.2486.114.3879.238.4277.124.0348.273-.0199.452-.1592.992-.7459 2.47-2.6854 4.434-5.8284 1.965-3.143 3.23-5.4554 3.795-6.9474.213-.5321.496-.8006.848-.8006.179 0 .298.0795.372.2387.07.1591.07.3829 0 .6664-.352 1.099-1.071 2.6059-2.148 4.5255-1.081 1.9146-2.237 3.7546-3.477 5.5101s-2.301 2.9689-3.184 3.6453c-.566.3182-1.062.4774-1.488.4774z"></path></g><path d="m50.3975 107.94c-.2976-.03-.5506-.049-.7689-.059-.2182-.01-.4266-.015-.62-.015h-5.2382l-.0446-.567.9474-.214c.0198-.05.0347-.169.0397-.353.0049-.184.0099-.433.0149-.751.0049-.318.0099-.701.0099-1.149v-2.909c0-.458 0-.851-.0099-1.169-.01-.318-.01-.572-.0149-.7557-.005-.184-.0199-.2934-.0397-.3382l-.9474-.2138.0446-.5669h4.9009c.1438 0 .2877 0 .4414-.005.1538-.005.3175-.0149.4961-.0249.1786-.0099.3621-.0199.5555-.0298l.3076 2.0043-.6895.109-.506-1.2878c-.0694-.0199-.1587-.0348-.2579-.0398-.1042 0-.2083-.0049-.3224-.0049h-1.756c-.1935 0-.3621 0-.5109.0049-.1488.005-.2927.0199-.4365.0398 0 .0398 0 .1542-.01.3432-.0049.1886-.0099.4076-.0148.6516-.005.244-.01.487-.01.736v4.177c0 .194 0 .393.01.607.0099.214.0099.393.0148.557.005.164.01.273.01.338.1438.01.2877.02.4414.03.1538.01.3274.015.5209.015h1.5129c.2232 0 .4067 0 .5506-.01.1438 0 .253-.015.3373-.025s.1488-.02.1984-.03l.7937-1.452.6696.139-.625 2.218zm-1.6816-3.212-.1835-1.04c-.0496-.02-.1389-.034-.258-.044-.124-.01-.2629-.015-.4266-.015h-1.1756c-.1339 0-.2728.005-.4266.015-.1537.01-.3224.019-.5059.029v-.84c.1835.01.3522.02.5059.025.1538.005.2977.01.4266.01h1.1756c.1637 0 .3076-.005.4266-.015.124-.01.2084-.02.258-.03l.1835-1.054h.6548v2.969h-.6548z" fill="#6a676f"></path><path d="m60.3728 107.91-3.3284-8.2498-.7639-.2139.0298-.5669h3.13l.0297.5669-.9325.2139 2.624 6.7188h-.2877l2.4753-6.7188-1.0665-.2139.0297-.5669h2.7927l.0298.5669-.7639.2139-3.3731 8.2498z" fill="#6a676f"></path><path d="m77.5803 107.94c-.2976-.03-.5506-.049-.7688-.059-.2183-.01-.4266-.015-.6201-.015h-5.2381l-.0447-.567.9475-.214c.0198-.05.0347-.169.0396-.353.005-.184.01-.433.0149-.751.005-.318.01-.701.01-1.149v-2.909c0-.458-.0001-.851-.01-1.169s-.0099-.572-.0149-.7557c-.0049-.184-.0198-.2934-.0396-.3382l-.9475-.2138.0447-.5669h4.9008c.1439 0 .2877 0 .4415-.005s.3175-.0149.496-.0249c.1786-.0099.3621-.0199.5556-.0298l.3075 2.0043-.6894.109-.506-1.2878c-.0694-.0199-.1587-.0348-.2579-.0398-.1042 0-.2084-.0049-.3225-.0049h-1.7559c-.1935 0-.3622 0-.511.0049-.1488.005-.2926.0199-.4365.0398 0 .0398 0 .1542-.0099.3432-.005.1886-.0099.4076-.0149.6516-.0049.244-.0099.487-.0099.736v4.177c0 .194 0 .393.0099.607s.0099.393.0149.557.0099.273.0099.338c.1439.01.2877.02.4415.03s.3274.015.5208.015h1.513c.2232 0 .4067 0 .5506-.01.1438 0 .2529-.015.3373-.025.0843-.01.1488-.02.1984-.03l.7936-1.452.6697.139-.625 2.218zm-1.6815-3.212-.1836-1.04c-.0496-.02-.1389-.034-.2579-.044-.124-.01-.2629-.015-.4266-.015h-1.1756c-.1339 0-.2728.005-.4266.015s-.3224.019-.506.029v-.84c.1836.01.3522.02.506.025s.2976.01.4266.01h1.1756c.1637 0 .3075-.005.4266-.015.124-.01.2083-.02.2579-.03l.1836-1.054h.6547v2.969h-.6547z" fill="#6a676f"></path><path d="m90.9536 105.702v-3.476c0-.611-.005-1.099-.0149-1.462s-.0199-.631-.0298-.8055c-.0099-.174-.0198-.2735-.0297-.3083l-1.0219-.2138.0298-.567h2.8869l.0447.567-.9326.2138c0 .0299-.0099.1343-.0248.3083-.0149.1745-.0297.4425-.0397.8055-.0099.363-.0148.851-.0148 1.462v4.645c0 .343.0049.691.0148 1.049h-.6845l-5.5903-7.608h.3075v4.162c0 .612.0099 1.104.0248 1.477s.0298.642.0446.811c.0149.169.0248.273.0248.313l1.0368.214-.0447.567h-2.9018l-.0446-.567.9325-.214c.0099-.04.0198-.144.0298-.313.0099-.169.0198-.438.0297-.811.01-.373.0149-.865.0149-1.477v-2.651c0-.467 0-.85-.0099-1.148-.005-.294-.0149-.527-.0248-.6866-.0099-.1641-.0248-.2735-.0447-.3382l-.9325-.2138.0446-.567h2.0586l5.1141 6.8276h-.2579z" fill="#6a676f"></path><path d="m106.182 98.8147.337 2.4663-.655.075-.639-1.7307c-.08-.0199-.174-.0348-.283-.0397-.109 0-.204-.01-.283-.01h-.962c-.174 0-.338.005-.486.0149 0 .0796 0 .2735-.01.5715-.005.304-.01.652-.01 1.05v3.247c0 .652.005 1.219.015 1.691s.015.786.015.925l1.299.184-.044.597h-3.85l-.029-.597 1.284-.184c0-.144.005-.453.015-.925s.015-1.039.015-1.691v-4.292c0-.303-.005-.4919-.015-.5715-.134-.0099-.283-.0149-.456-.0149h-1.022c-.079 0-.174 0-.273.0099-.104.005-.1933.0199-.2727.0398l-.625 1.7457-.6697-.09.3373-2.4663c.1241.01.2431.0199.3671.0249.124 0 .2431.0099.3572.0149.119.005.2381.0099.3571.0149.1237 0 .2427.005.3667.005h4.38c.124 0 .243 0 .367-.005s.244-.0099.358-.0149c.119 0 .238-.01.357-.0149.124-.005.243-.0149.367-.0249z" fill="#6a676f"></path><path d="m115.026 108c-.436 0-.898-.055-1.374-.169s-.863-.254-1.16-.428l-.075-1.959.64-.06.427 1.363c.243.164.515.288.808.373.293.084.615.129.962.129.511 0 .918-.124 1.221-.373.307-.249.456-.582.456-1.004 0-.359-.109-.657-.322-.896-.214-.238-.491-.447-.834-.626-.342-.179-.704-.353-1.086-.527s-.744-.368-1.086-.587c-.343-.219-.62-.493-.839-.811-.218-.323-.327-.721-.327-1.203 0-.483.139-.92.412-1.2933.272-.373.654-.6664 1.146-.8802.491-.2139 1.046-.3233 1.681-.3233.263 0 .521.0149.769.0398s.476.0647.684.1144c.209.0497.402.1193.571.1989l.124 1.8997-.64.06-.427-1.2834c-.317-.2039-.734-.3083-1.25-.3083-.515 0-.947.1293-1.26.3829-.312.2538-.466.5918-.466 1.0098 0 .368.109.671.328.92.218.243.501.462.838.651.342.189.704.368 1.086.542s.744.368 1.087.582c.342.214.62.478.838.786.218.313.327.696.327 1.154 0 .457-.139.91-.421 1.293-.278.383-.665.681-1.161.905-.496.219-1.057.328-1.687.328z" fill="#6a676f"></path></g></svg>