<svg xmlns="http://www.w3.org/2000/svg" fill="none" height="45" viewBox="0 0 212 45" width="212"><g fill="#3c3a40"><path d="m106.458 29.7293c-.106-.3021-.143-.6115-.117-.9246.102-1.0794.299-2.1145.588-3.1165.284-.9983.456-1.5914.507-1.7756l.467-1.6171c.365-1.3667.938-3.4149 1.719-6.1519l.117-.3168-1.639.3537c-1.825.3683-3.365.7109-4.628 1.024-1.263.3168-2.508.6852-3.7304 1.1052-.2884.1068-.5074.3168-.6643.6299-.7556 1.945-1.7849 4.8883-3.0844 8.8299l-.1168.4716c-.1058.2099-.2336.2873-.3905.2357-.1825-.1326-.2847-.2357-.3139-.3168v-.1989c0-.1842.0146-.3279.0401-.4347l.3139-1.1051c.2081-.8399.4161-1.5767.6242-2.2066l1.679-4.9694.1168-.2357-.5876.1584c-.3139.1326-1.106.4604-2.3835.9872-.0767.0516-.1971.1069-.3504.1584h-.157c-.1569 0-.2847-.0663-.3905-.1989-.0511-.1031-.0767-.1842-.0767-.2358 0-.1326.0657-.2357.1971-.3168.157-.1584.3249-.2873.5074-.3941l1.4856-.711c.1569-.0773.4307-.2026.8212-.3757.3906-.1695.741-.3095 1.0549-.4126.365-.1584.6388-.4347.8213-.8289 1.095-2.4717 2.2265-4.612 3.3985-6.4244 1.536-2.36498 3.113-4.17738 4.727-5.44091.755-.57835 1.43-1.03882 2.029-1.38141.675-.39416 1.369-.59308 2.07-.59308.157 0 .416.02579.781.07736 1.12.18419 1.821.86568 2.109 2.05185.132.47152.168.98356.117 1.53612-.076 1.49929-.379 3.20855-.898 5.12407l-.507 1.9303 1.055-.1179h.547c.208.0258.351.1695.431.4347v.0774c0 .1842-.091.3426-.274.4715-.105.0516-.233.1068-.39.1584l-1.446.3942c-.259.0257-.43.1989-.507.512-.781 2.5749-1.354 4.5089-1.719 5.7945l-.705 2.7592c-.314 1.2598-.562 2.1955-.741 2.7996-.182.6557-.423 1.3483-.722 2.0703-.3.722-.632 1.083-.997 1.083-.416 0-.679-.151-.781-.4531zm-5.899-12.9889.938-.3168c.34-.1326.873-.3021 1.603-.5121 2.631-.6557 4.686-1.1309 6.172-1.4182.391-.0774.675-.21.858-.3942.182-.1841.325-.4715.43-.8656l.351-1.3004c.339-1.2856.58-2.28025.723-2.97648.142-.69623.24-1.44034.292-2.22866.025-.13262.04-.34259.04-.62993 0-.26154-.015-.46046-.04-.59308-.077-.52677-.391-.81411-.938-.86568h-.391c-.391 0-.705.06631-.938.19892-.65.29102-1.081.51204-1.289.67044-1.04.62992-2.069 1.52508-3.084 2.68177-1.069 1.20827-2.018 2.5234-2.851 3.9416-.832 1.4183-1.642 3.0096-2.423 4.7705l.547-.1584z"></path><path d="m119.255 31.7185c-.496 0-.898-.291-1.212-.8656-.339-.6042-.562-1.4072-.664-2.4055-.051-.5268-.077-.932-.077-1.223 0-.8399.117-1.9045.351-3.1938.102-.5784.284-1.4441.547-2.6008l.274-1.3003.076-.3168-.076-.0406-1.055 1.6172-1.993 2.7591c-.131.21-.339.4089-.624.5931-.259.1842-.508.2763-.741.2763-.391 0-.716-.1989-.978-.5931-.285-.3942-.416-.803-.391-1.223 0-.5783.051-1.0904.157-1.5361.522-1.8382 1.369-3.4701 2.541-4.8884.284-.3425.664-.6704 1.131-.9872.365-.21.704-.3168 1.015-.3168.73 0 1.277.3942 1.642 1.1825l.157.3536.314-.7478.431-1.1051c.339-.9209.715-1.9192 1.131-2.9949.73-1.7608 1.614-3.48114 2.658-5.16461.102-.18419.39-.60413.857-1.25984.157-.20997.351-.36838.584-.47152.077-.05157.183-.07736.314-.07736.183 0 .325.05157.431.1584.208.1584.274.37943.197.67045-.025.13261-.066.23576-.117.3168-.051.07736-.091.1584-.116.23576-.157.3168-.26.56729-.314.7478-2.11 4.65262-3.621 8.45052-4.53 11.39382-1.095 3.7317-1.679 7.1097-1.759 10.1303v.5526c0 .3684.051.6557.157.8657.259-.3168.456-.5673.587-.7478l.821-1.4993c.705-1.444 1.519-2.9249 2.442-4.4353.924-1.5103 1.464-2.3981 1.621-2.6596l1.055-1.7351c.077-.1326.233-.3168.467-.5525.131-.1842.274-.21.431-.0774.102.0774.102.2247 0 .4347l-2.814 4.5752c-1.198 1.945-2.212 3.9674-3.048 6.0708-.314.6557-.533 1.1052-.665 1.3409-.339.4973-.741.7478-1.211.7478zm-4.179-8.5942c.598-.6557 1.153-1.3408 1.66-2.0481.508-.711 1.114-1.6172 1.818-2.7186.051-.0774.077-.1989.077-.3537-.183-.4752-.3-.7625-.351-.8693-.157-.2616-.324-.3942-.507-.3942-.182 0-.35.0921-.507.2763-.234.2615-.457.5931-.665.9872-.887 1.8677-1.485 3.507-1.796 4.9289l-.076.4752.35-.2763z"></path><path d="m127.5 25.4119c-.704 0-1.277-.2873-1.719-.8657-.314-.4457-.467-.8804-.467-1.3003 0-.5526.066-1.1567.197-1.8124.314-1.3409.847-2.6413 1.603-3.9048.131-.1584.248-.3205.35-.4936.102-.1695.208-.3205.314-.4531.157-.2358.383-.42.682-.5526.3-.1326.581-.1989.84-.1989s.442.0516.547.1584c.103.1068.103.2615 0 .4715-.156.3942-.43 1.0241-.821 1.8935-.259.5267-.514 1.0719-.763 1.6355-.248.5673-.438 1.0978-.565 1.5951-.132.6557-.198 1.2746-.198 1.8529 0 .42.143.6299.431.6299.077 0 .223-.0257.431-.0773.467-.1584.898-.4457 1.288-.8657.833-.8657 1.42-1.8124 1.76-2.8402l.35-1.1824c-.755-.3942-1.212-.9063-1.369-1.5362-.051-.2615-.076-.4347-.076-.512 0-.3942.142-.8141.43-1.2599.234-.2357.482-.3536.741-.3536.34 0 .599.1584.782.4715.284.501.43 1.0646.43 1.6945l-.04.5121c0 .0773-.025.2505-.077.512.234.0258.559.0406.979.0406.832 0 1.587-.0995 2.266-.2947.676-.199 1.486-.5342 2.424-1.0057.102-.0516.183-.0774.234-.0774.208 0 .314.0921.314.2763 0 .1584-.092.291-.274.3942-.624.4457-1.369.8067-2.227 1.083s-1.759.4126-2.694.4126c-.259 0-.624-.0258-1.095-.0774l-.741 2.0887c-.416 1.0499-1.054 2.0113-1.912 2.877-.391.3942-.887.6962-1.486.9062-.233.1068-.522.1584-.858.1584zm4.377-8.2995c-.051-.302-.172-.6115-.35-.9283-.234.3168-.351.6299-.351.9467 0 .2358.066.4458.197.63.132.1842.314.3278.548.4346.025-.4199.014-.7809-.04-1.083z"></path><path d="m136.994 25.2535c-.051-.2615-.076-.4715-.076-.6299 0-.1842.014-.3168.04-.3942.131-.7883.416-2.1402.858-4.0594.288-1.2083.741-3.0207 1.368-5.4409l.077-.2358c.077-.3168.274-.4715.588-.4715h.117c.259 0 .456.1436.584.4347.025.0515.076.2247.157.512.076.291.102.5673.076.8288 0 .6042-.066 1.2746-.197 2.0114l-.664 2.9949.43-.5931c.417-.5526.639-.8547.665-.9062l2.303-2.9949c.547-.7368 1.263-1.3814 2.15-1.9303.077-.0258.215-.0921.409-.1989.197-.1032.383-.1842.565-.2358.285-.0773.559-.0405.822.1179.259.1584.405.3942.43.711.052.2099.077.3941.077.5525 0 .1326-.025.3021-.077.5121-.076.291-.299.9467-.664 1.9708-.182.4457-.522.6299-1.015.5525-.39-.1584-.562-.4862-.507-.9872l.197-1.1051.274-1.1052c-.34.1069-.679.3021-1.015.5931-.912.7368-1.745 1.6282-2.5 2.6818-.887 1.2598-1.978 3.1275-3.282 5.5993-.157.3168-.273.6299-.35.9467l-.234.4347c-.076.1842-.197.3279-.35.4347-.157.1031-.325.1326-.507.0773-.416-.0515-.665-.2762-.741-.6704z"></path><path d="m154.789 28.7236c-.289 0-.566-.0847-.84-.2578-.274-.1695-.5-.4126-.682-.7294-.289-.4457-.406-.9467-.351-1.4993.051-1.1309.143-2.1402.274-3.0354.182-1.3925.588-3.1275 1.212-5.2051l.197-.5526-.117-.0405c-.077.1584-1.04 1.4661-2.891 3.9232-1.85 2.457-2.931 3.7905-3.241 4.0005-.157.1326-.365.1989-.624.1989-.442 0-.781-.1989-1.015-.593-.234-.3942-.35-.8657-.35-1.4183 0-.4715.065-.9725.197-1.4993.416-1.8124 1.003-3.599 1.759-5.3635.051-.1031.157-.3021.314-.5894s.314-.5378.467-.7478c.157-.2358.365-.4347.624-.5931.077-.0516.197-.0774.351-.0774.182 0 .343.0737.489.2174.142.1437.241.3242.292.5305 0 .3425-.04.6299-.117.8656-.025.1069-.131.3684-.314.7884-.077.2357-.182.5194-.314.8472-.131.3279-.259.7147-.39 1.1641-.106.3684-.197.6299-.274.7883l-.741 2.446c-.106.3168-.131.7478-.077 1.3004.051-.0774.464-.5968 1.23-1.5582.767-.9578 1.336-1.7167 1.701-2.2656.416-.6557 1.095-1.6171 2.03-2.877.39-.5267.847-.9467 1.369-1.2598.208-.1326.441-.1989.704-.1989.493 0 .832.2505 1.015.7478.102.21.157.4604.157.7478 0 .2357-.04.501-.117.7883-.132.5783-.314 1.2598-.548 2.0518-.547 2.1035-.887 3.9564-1.014 5.5588-.026.4458-.015 1.142.04 2.0887.314-.0258.547-.1694.704-.4347.467-.6299.796-1.1161.979-1.4587 1.328-2.446 2.525-4.6784 3.595-6.7008.051-.0773.222-.3684.507-.8657l.234-.3168c.131-.0515.259-.0515.39 0 .077.0258.117.1327.117.3168l-.197.3942c-.679 1.3151-1.719 3.2859-3.124 5.9124l-.508 1.0241c-.131.2358-.266.4973-.409.7883-.142.2874-.306.6042-.489.9467-.339.5268-.664.921-.978 1.1825-.339.3426-.741.5121-1.212.5121z"></path><path d="m171.926 28.8415c-.548 0-.964-.3021-1.248-.9062-.26-.6041-.391-1.1825-.391-1.735 0-.1842.026-.4347.077-.7478.208-.9468.405-1.6541.587-2.1293.493-1.444 1.263-3.6137 2.303-6.5055.026-.1326.132-.4346.314-.9062-.025 0-.065-.0257-.116-.0773-.625.3168-1.369.8657-2.227 1.6577-.912.8656-1.668 1.8013-2.267 2.7996-.131.21-.248.3942-.35.5526-.106.1584-.197.302-.274.4347-.73 1.1567-1.237 2.0481-1.522 2.6817-.106.21-.208.3684-.314.4716-.182.2099-.405.3168-.664.3168-.183 0-.347-.059-.489-.1769-.143-.1178-.241-.2689-.292-.4531-.026-.0773-.04-.2357-.04-.4715 0-.1326.014-.2357.04-.3168.025-.1326.084-.4199.175-.8657.091-.4457.215-.8399.372-1.1825.102-.2615.376-.9209.822-1.9708l.507-1.1419c.208-.4715.35-.8547.431-1.142-.106.1068-.23.2026-.373.2947-.142.0921-.281.2026-.409.3352-.857.8141-1.551 1.6283-2.069 2.446l-1.132 1.7756c-.233.42-.613 1.0241-1.131 1.8124-.051.0774-.274.42-.665 1.0241-.313.3684-.664.501-1.054.3942-.365-.1032-.588-.3795-.665-.8289-.051-.3168-.076-.5378-.076-.6704 0-.3168.051-.7368.157-1.2599.339-1.8382 1.014-3.8237 2.033-5.9529.076-.1842.222-.4347.43-.7478.234-.2358.468-.3537.705-.3537.051 0 .157.0258.314.0774.365.1842.522.4863.467.9062-.051.3942-.131.7625-.234 1.1051l-1.014 3.2712c-.183.4715-.289.9209-.314 1.3409l.35-.4715.705-1.0241 1.993-2.7186c.313-.4458.697-.862 1.153-1.2414.456-.3795.723-.5968.799-.6521.132-.1068.351-.2099.665-.3168.284-.0515.547-.0147.781.1179.233.1326.405.3426.507.6299.077.2616.117.5121.117.7478 0 .2358-.051.5931-.157 1.0646-.106.2911-.168.5526-.197.7884l1.288-1.5362c.913-1.1051 1.731-1.9192 2.461-2.446.441-.2873.832-.4973 1.171-.6299.208-.0774.405-.1179.588-.1179.314 0 .573.1105.781.3352.208.2248.325.5195.35.8878 0 .5784-.065 1.0499-.197 1.4183-.259.8141-.679 2.0113-1.248 3.5879-.887 2.5234-1.486 4.4426-1.796 5.7541-.106.4199-.157.7367-.157.9467 0 .1842.015.3278.04.4347.077-.0516.157-.1105.234-.1768.077-.0664.168-.14.274-.2174-.026.0516.142-.1584.507-.6299l.781-.9836c1.303-1.9708 2.723-4.601 4.26-7.8869l.197-.3536c.157-.2358.325-.3021.507-.1989.157.1326.197.2762.117.4346l-.117.2763-.35.7478c-1.015 2.155-1.862 3.8753-2.541 5.1646-.678 1.2894-1.394 2.4571-2.149 3.5107-.314.4457-.679.8546-1.095 1.223-.34.2615-.679.3941-1.015.3941z"></path><path d="m178.189 24.2663c-.481-.42-.773-1.013-.879-1.7756-.077-.9983.065-2.1145.43-3.3522.365-1.234.873-2.2618 1.522-3.0759.285-.42.705-.8804 1.249-1.3814.573-.5268 1.223-.8289 1.953-.9062h.233c.285 0 .493.0147.624.0405.26.0773.468.2358.625.4715.156.2358.208.501.156.7883 0 .2358-.025.4089-.076.5121-.599 1.5766-1.614 2.7738-3.048 3.5879-.157.1327-.442.2505-.858.3537-.233.0773-.365.21-.39.3941-.208.63-.314 1.2231-.314 1.7756 0 .3168.04.6557.117 1.0241.076.3168.197.5305.35.652.153.1216.405.2026.741.2579.807.0773 1.642-.1695 2.5-.7478.599-.3942 1.438-1.1051 2.519-2.1292 1.08-1.0241 1.934-1.9045 2.559-2.6413l.547-.6299.274-.1989.117-.0405c.076 0 .149.0331.215.0994s.084.1511.058.2579l-.197.2763c-.649.9725-1.613 2.0776-2.891 3.3117-1.277 1.234-2.394 2.1549-3.358 2.7591-.963.6299-1.942.9467-2.931.9467-.755 0-1.372-.21-1.854-.6299zm3.964-6.8997c.65-.7883 1.004-1.5103 1.055-2.1697-.025.0258-.058.0405-.098.0405-.041 0-.073.0147-.099.0405-.106.0258-.234.1069-.39.2358-.99.9983-1.745 1.9855-2.267 2.958-.026.0258-.077.1437-.157.3537.65-.1842 1.303-.6705 1.953-1.4588z"></path><path d="m195.797 28.7236c-.288 0-.565-.0847-.839-.2578-.274-.1695-.5-.4126-.683-.7294-.288-.4457-.405-.9467-.35-1.4993.051-1.1309.142-2.1402.274-3.0354.182-1.3925.587-3.1275 1.211-5.2051l.198-.5526-.117-.0405c-.077.1584-1.041 1.4661-2.891 3.9232-1.851 2.457-2.931 3.7905-3.241 4.0005-.157.1326-.365.1989-.625.1989-.441 0-.781-.1989-1.014-.593-.234-.3942-.351-.8657-.351-1.4183 0-.4715.066-.9725.197-1.4993.416-1.8124 1.004-3.599 1.76-5.3635.051-.1031.157-.3021.314-.5894s.314-.5378.467-.7478c.157-.2358.365-.4347.624-.5931.077-.0516.197-.0774.35-.0774.183 0 .344.0737.49.2174.142.1437.24.3242.292.5305 0 .3425-.041.6299-.117.8656-.026.1069-.132.3684-.314.7884-.077.2357-.183.5194-.314.8472-.132.3279-.259.7147-.391 1.1641-.106.3684-.197.6299-.273.7883l-.741 2.446c-.106.3168-.132.7478-.077 1.3004.051-.0774.464-.5968 1.23-1.5582.767-.9578 1.336-1.7167 1.701-2.2656.416-.6557 1.095-1.6171 2.029-2.877.391-.5267.847-.9467 1.369-1.2598.208-.1326.442-.1989.705-.1989.492 0 .832.2505 1.014.7478.103.21.157.4604.157.7478 0 .2357-.04.501-.116.7883-.132.5783-.314 1.2598-.548 2.0518-.547 2.1035-.887 3.9564-1.015 5.5588-.025.4458-.014 1.142.04 2.0887.314-.0258.548-.1694.705-.4347.467-.6299.796-1.1161.978-1.4587 1.329-2.446 2.526-4.6784 3.596-6.7008.051-.0773.222-.3684.507-.8657l.233-.3168c.132-.0515.26-.0515.391 0 .077.0258.117.1327.117.3168l-.197.3942c-.679 1.3151-1.719 3.2859-3.125 5.9124l-.507 1.0241c-.132.2358-.267.4973-.409.7883-.142.2874-.307.6042-.489.9467-.339.5268-.664.921-.978 1.1825-.34.3426-.741.5121-1.212.5121z"></path><path d="m202.827 28.5247c-.365 0-.675-.1732-.938-.5121-.704-.8399-1.04-1.7608-1.014-2.7591.051-1.1309.157-2.1292.314-2.9949.259-1.5508.605-3.1275 1.036-4.7299s.683-2.5492.763-2.8402l.314-1.1051c.051-.1326.102-.3426.157-.6299-1.121.2615-1.588.3683-1.405.3168l-2.11.4752-.391.1179c-.233-.0516-.35-.1584-.35-.3168v-.0406c0-.1031.051-.2099.157-.3168.106-.0773.259-.1436.467-.1989 1.354-.3426 2.5-.6041 3.438-.7883.183-.0258.318-.0774.409-.1584.091-.0774.175-.21.256-.3942.441-1.2893.989-2.61544 1.639-3.98211.131-.26155.259-.49731.39-.71097.132-.20997.234-.39416.314-.55256.183-.20997.325-.43468.431-.67044.285-.39416.613-.52678.978-.39416.234.18418.35.39416.35.62992 0 .05157-.025.18418-.076.39416-.051.26154-.11.50099-.175.71096-.066.20998-.125.39416-.176.55256l-1.248 3.54744-.117.5121c.807-.1032 2.11-.1842 3.906-.2358.131 0 .325.0258.584.0774.208.1326.299.2762.274.4346-.026.1069-.077.1695-.157.199-.077.0257-.168.0405-.274.0405-1.248 0-2.643.1179-4.179.3536-.183 0-.318.0332-.409.0995-.092.0663-.165.1915-.216.3757-.131.5268-.259.9873-.39 1.3814-.289 1.0499-.467 1.7498-.548 2.0887-.806 2.7591-1.46 5.754-1.952 8.9884-.052.3683-.077.6299-.077.7883 0 .3426.051.6557.157.9467.025.1842.084.2873.175.3168.091.0258.201-.0147.332-.1179.73-.5525 1.818-1.9892 3.263-4.3173 1.446-2.3281 2.377-4.0411 2.793-5.1462.157-.3942.365-.5931.624-.5931.131 0 .219.0589.274.1768.051.1179.051.2837 0 .4936-.26.8142-.789 1.9303-1.581 3.3523-.796 1.4182-1.646 2.7812-2.559 4.0815-.912 1.3004-1.693 2.1992-2.343 2.7002-.416.2358-.781.3537-1.095.3537z"></path></g><path d="m98.9094 42.826c-.219-.0221-.4052-.0368-.5658-.0442s-.3139-.0111-.4563-.0111h-3.8545l-.0328-.4199.6972-.1584c.0146-.0368.0255-.1253.0292-.2616.0036-.1362.0073-.3204.0109-.5562.0037-.2358.0073-.5194.0073-.8509v-2.155c0-.3389 0-.63-.0073-.8657-.0073-.2358-.0073-.4236-.0109-.5599-.0037-.1363-.0146-.2174-.0292-.2505l-.6972-.1584.0328-.42h3.6063c.1059 0 .2117 0 .3249-.0037s.2336-.011.365-.0184.2665-.0147.4088-.0221l.2263 1.4846-.5073.081-.3724-.9541c-.0511-.0147-.1168-.0258-.1898-.0295-.0766 0-.1533-.0036-.2372-.0036h-1.2921c-.1424 0-.2665 0-.376.0036-.1095.0037-.2154.0148-.3212.0295 0 .0295 0 .1142-.0073.2542-.0037.14-.0073.3021-.011.4826-.0036.1805-.0073.361-.0073.5452v3.0943c0 .1437 0 .291.0073.4494s.0073.291.011.4126c.0036.1216.0073.2026.0073.2505.1058.0074.2117.0147.3248.0221.1132.0074.241.011.3833.011h1.1133c.1642 0 .2993 0 .4051-.0073.1059 0 .1862-.0111.2483-.0184.062-.0074.1095-.0148.146-.0221l.584-1.0757.4927.1031-.4599 1.643zm-1.2374-2.3797-.1351-.7699c-.0365-.0147-.1022-.0258-.1898-.0332-.0912-.0073-.1934-.011-.3139-.011h-.865c-.0986 0-.2008.0037-.314.011-.1131.0074-.2372.0148-.3723.0221v-.6225c.1351.0074.2592.0147.3723.0184.1132.0037.219.0074.314.0074h.865c.1205 0 .2263-.0037.3139-.0111.0913-.0073.1533-.0147.1898-.0221l.1351-.7809h.4818v2.1992h-.4818z" fill="#6a676f"></path><path d="m106.25 42.8039-2.449-6.1114-.563-.1584.022-.4199h2.304l.021.4199-.686.1584 1.931 4.9768h-.212l1.822-4.9768-.785-.1584.022-.4199h2.055l.022.4199-.562.1584-2.482 6.1114z" fill="#6a676f"></path><path d="m118.912 42.826c-.219-.0221-.405-.0368-.566-.0442s-.314-.0111-.456-.0111h-3.855l-.033-.4199.698-.1584c.014-.0368.025-.1253.029-.2616.003-.1362.007-.3204.011-.5562.003-.2358.007-.5194.007-.8509v-2.155c0-.3389 0-.63-.007-.8657-.008-.2358-.008-.4236-.011-.5599-.004-.1363-.015-.2174-.029-.2505l-.698-.1584.033-.42h3.607c.105 0 .211 0 .324-.0037.114-.0037.234-.011.365-.0184.132-.0074.267-.0147.409-.0221l.227 1.4846-.508.081-.372-.9541c-.051-.0147-.117-.0258-.19-.0295-.077 0-.153-.0036-.237-.0036h-1.292c-.143 0-.267 0-.376.0036-.11.0037-.216.0148-.321.0295 0 .0295 0 .1142-.008.2542-.003.14-.007.3021-.011.4826-.003.1805-.007.361-.007.5452v3.0943c0 .1437 0 .291.007.4494.008.1584.008.291.011.4126.004.1216.008.2026.008.2505.105.0074.211.0147.324.0221.114.0074.241.011.384.011h1.113c.164 0 .299 0 .405-.0073.106 0 .186-.0111.248-.0184.062-.0074.11-.0148.146-.0221l.584-1.0757.493.1031-.46 1.643zm-1.238-2.3797-.135-.7699c-.036-.0147-.102-.0258-.189-.0332-.092-.0073-.194-.011-.314-.011h-.865c-.099 0-.201.0037-.314.011-.113.0074-.238.0148-.373.0221v-.6225c.135.0074.26.0147.373.0184s.219.0074.314.0074h.865c.12 0 .226-.0037.314-.0111.091-.0073.153-.0147.189-.0221l.135-.7809h.482v2.1992h-.482z" fill="#6a676f"></path><path d="m128.753 41.1683v-2.575c0-.4531-.004-.8141-.011-1.083-.008-.2689-.015-.4678-.022-.5967-.008-.129-.015-.2027-.022-.2284l-.752-.1584.022-.42h2.124l.033.42-.686.1584c0 .0221-.008.0994-.018.2284-.011.1289-.022.3278-.03.5967-.007.2689-.011.6299-.011 1.083v3.4407c0 .2541.004.512.011.7772h-.503l-4.114-5.6361h.226v3.0833c0 .4531.008.8178.018 1.0941.011.2763.022.4752.033.6004.011.1253.019.2026.019.2321l.762.1584-.032.4199h-2.136l-.033-.4199.687-.1584c.007-.0295.014-.1068.022-.2321.007-.1252.014-.3241.021-.6004.008-.2763.011-.641.011-1.0941v-1.9634c0-.3463 0-.63-.007-.851-.004-.2173-.011-.3905-.018-.5083-.007-.1216-.018-.2026-.033-.2505l-.686-.1584.033-.42h1.514l3.764 5.0578h-.19z" fill="#6a676f"></path><path d="m139.958 36.0663.248 1.8271-.481.0553-.471-1.282c-.059-.0147-.128-.0257-.208-.0294-.081 0-.15-.0074-.208-.0074h-.708c-.128 0-.249.0037-.358.011 0 .059 0 .2027-.007.4237-.004.2247-.008.4826-.008.7773v2.4054c0 .4826.004.9026.011 1.2525.008.35.011.582.011.6852l.956.1363-.032.442h-2.833l-.022-.442.946-.1363c0-.1068.003-.3352.011-.6852.007-.3499.011-.7699.011-1.2525v-3.179c0-.2247-.004-.3647-.011-.4237-.099-.0073-.208-.011-.336-.011h-.752c-.059 0-.128 0-.201.0073-.077.0037-.142.0148-.201.0295l-.46 1.293-.492-.0663.248-1.8271c.091.0073.179.0147.27.0184.091 0 .179.0074.263.011.087.0037.175.0074.263.0111.091 0 .178.0037.27.0037h3.223c.091 0 .179 0 .27-.0037s.179-.0074.263-.0111c.087 0 .175-.0073.262-.011.092-.0037.179-.0111.271-.0184z" fill="#6a676f"></path><path d="m146.466 42.8702c-.321 0-.66-.0405-1.011-.1253-.35-.0847-.635-.1878-.854-.3168l-.054-1.4514.47-.0442.314 1.0094c.179.1216.38.2136.595.2763.216.0626.453.0957.708.0957.376 0 .676-.092.898-.2762.227-.1842.336-.431.336-.7442 0-.2652-.08-.4862-.237-.663s-.362-.3316-.613-.4642c-.252-.1326-.519-.2615-.8-.3905-.281-.1289-.547-.2726-.799-.4346-.252-.1621-.456-.3647-.617-.6005-.161-.2394-.241-.5341-.241-.8915 0-.3573.102-.6815.303-.9577.201-.2763.482-.4937.843-.6521.362-.1584.77-.2394 1.238-.2394.193 0 .383.0111.565.0295.183.0184.351.0479.504.0847s.296.0884.42.1473l.091 1.4072-.471.0442-.314-.9504c-.233-.151-.54-.2284-.919-.2284-.38 0-.698.0958-.928.2837s-.343.4384-.343.7478c0 .2726.081.4973.241.6815.161.1805.369.3426.617.4826.252.1399.518.2726.799.4015s.548.2726.8.431.456.3536.617.582c.16.2321.241.5157.241.8546 0 .339-.103.6742-.311.9578-.204.2837-.489.5047-.854.6705-.365.162-.777.2431-1.241.2431z" fill="#6a676f"></path><path d="m84.5931 11.0696-1.1806-.774-1.5437.7055-1.4598.9151-1.7152.266-1.5756.6289-1.5037.8143-.8376.9352.1994 1.6286.2034 1.6286-.0319 1.6407.2353 1.7697-1.7829.657-1.7989.2459-1.6873.9433.008-1.7374.2752-1.5802-.0199-1.5964.2074-.5079-1.412-.3628-1.6833.3749-1.4479.9433-1.5955.5926-1.6792.8788-.6821-2.1164-.339-2.0277 1.404-1.0642 1.5995-.8385 1.4598-1.0441 1.452-1.0561.1276-1.2174-.5784-1.45126-.5664-1.45526-.5863-1.44719-.359-1.53991-.6861-1.41494-.4547-.71352-.9653.07257-1.1647 1.15291-1.2006 1.10051-1.4758.72158-1.3083.95942-1.1847 1.13276-.6222 1.12067.6501 1.56006.7539 1.5157.7698 1.5117.359 1.5117-1.4838.9635-1.5835 1.0682-1.5436 1.0723-.7579-1.5923-.7659-1.6286-.4587-1.7657-.8855-.5683-.8296.4111-1.0331 1.0643-1.2445.8546-1.057 1.0481-.8775 1.1448-.9733-1.2819-1.0051-1.3262-.9852-1.3424.8456-1.3384.9413-1.2577 1.2285-1.03198.8935-1.30207.726-1.4351-.012-1.01585-.8416-1.30207-1.2286-.92717-1.1168-1.04004-.8975-1.2537-.8815-1.26982-1.5476.161247-.8975 1.249663-1.2245.9312-.8975 1.2537-1.3123.85461-.9254 1.22547-.1156 1.32223 1.2046 1.05213.9453 1.2537.9014 1.29405.7898 1.3826 1.081 1.2013-1.069 1.3182-1.1248 1.2336-.8137 1.4431-1.0172-1.0481-.9214-1.1771-1.2125-.8868-1.085-1.0159-.7937-.3668-.5864.645-.8057 1.6084-.6342 1.6891-.8177 1.6931-1.5437-1.2739-1.5954-1.0521-1.5676-.903.3949-1.5399.5823-1.5883.718-1.5359.5425-1.60439-.2673-.97958-1.1767-1.13679-1.3801-.85461-1.3043-.95942-1.3043-.96345-1.2764-1.00376-.8217-.09272-.7419.49181-.5305 1.46734-.2632 1.57216-.714 1.39882-.8137 1.36254-.4747 1.49555.5505 1.0965 1.4359 1.0763 1.3043 1.2698 1.6035.8385 1.5636.9998-.6582 2.0155-.6621 1.9068-1.5995-.4152-1.4439-.9474-1.6473-.4716-1.436-.9755-1.0131.3104-.1715.8344v1.5923l-.016 1.5964.1396 1.7334-1.763-.7135-1.7351-.4314-1.61945-.8102.07978-1.6569v-1.6366l-.04388-1.6407-.04387-1.6407-.38691-.8869-1.47982-.8667-1.60348-.5563-1.61543-.528-1.5596-.6773-1.5596-.6772-1.041058.0605-.362977.9553.167528 1.5883-.2871896 1.5923-.0199434 1.5924.0917408 1.5923.2752242 1.5923.478647.9392 1.695218.7498 1.84678.2701 1.67926.8143 1.94252.2701-.14759 1.6931.09573 1.5722.39887 1.556-.11966 1.5883.68607.7256 1.36419.8103 1.4678.5482 1.424.6732 1.5716.3386-.0718 1.7294.0877 1.7132-.2513 1.7133.722 1.04 1.4319.3306 1.1927.8949 1.3362.5644 1.408.391.3151.4354.371.3426.1037.5765 1.4758.7619 1.4719.2701 1.3282.6853 1.8628.3628 1.8747.2821 1.8667.3225 1.6114.0283 1.5796.3749 1.6074.008 1.6035.0242 1.5995.254 1.6075.0161 1.6074-.1532 1.6035.0282 1.6114.1169 1.5836-.3829 1.6034-.0605 1.5636-.4313 1.6075-.0565 1.6274.0283 1.8348-.4153 1.8388-.395 1.8109-.5079 1.3602-.4153 1.2684-.6651 1.0809-.9594.7699-.5523 1.2764-.6853 1.5037-.0887 1.6833-.6046 1.6274-.7458.5823-1.0038.0718-.0161-.367-1.7133.2673-1.7132-.1994-1.8221 1.5516-.6571 1.5596-.3063 1.4319-.641 1.5118-.4354.3749-.9755.3311-1.556-.1556-1.5883.3351-1.5601.0598-1.5802 1.7311-.6571 1.775-.4999 1.8388-.3063 1.7431-.6208.6422-1.0723-.1835-1.5883.0837-1.5923.1995-1.5923.0678-1.5923-.0239-1.5924-.359-.3023zm-76.64355 9.5015-1.47982-.7498-1.46785-.3789-1.53966-.1653-1.2365-.7659.03988-1.3384-.19146-1.4553.23534-1.4552-.19146-1.3867 1.46785.4555 1.4519.6692 1.57157.3789 1.56358.7055-.41084 1.8503.31112 1.7696-.12365 1.8705zm62.19635 9.3846.2314-1.7254-.1157-1.6004-.2991-1.7213 1.8906-.3144 1.6713-.6127 1.6035-.7942-.3311 1.6044.0519 1.6286.0398 1.6689-1.5954.5442-1.448.8143zm-7.2435 6.8207-.1037 1.0763-.9174-.645-1.2365-.2902-.9414-.516 1.2844-.6006 1.6513-1.0481.2633 2.0196zm-46.2414-10.8963 1.3362 1.0885 1.408.7256 1.5995.6167-.5066 1.806-.0798 1.6044-1.1806-.2943-1.2325-.6651-1.3123-.262-.1077-1.4634.1117-1.5116-.0399-1.6407zm10.7017-.1007-.8256 1.5117-.359 1.4875-1.6553-.7579-1.2964-1.2819.2194-1.8141.008-1.9389 1.1168 1.1327 1.3482.8224 1.44.8344zm-5.0776 6.9457.4627-1.931.0119-1.7979 1.5836.7377 1.2484 1.2578-.0239 1.8422.1915 1.935-1.5596-1.2577-1.9186-.7821zm.0239 2.0559 1.9306 1.5238-1.4081.3789-.6621.3829.1436-2.2856zm5.3409-2.322 1.077 1.3908 1.2086 1.0037-2.4252.5281.351-1.4512-.2114-1.4754zm3.3625-11.0494.7459 1.3746.9055 1.0803 1.1208 1.0441-.9174 1.3908-.3829 1.3101-1.4798-1.1126-1.2605-1.3585.6262-1.7415.6462-1.9873zm1.0052 8.3727-.5265 1.8785-.0678 1.7697-1.3043-.8989-.9534-1.4311-1.1607-1.0602.3072-1.423.5105-1.2416 1.4758 1.1771 1.7232 1.2295zm1.5636 1.8544.8695 1.4592 1.0371 1.0925-2.3653.2902.5105-1.3746zm4.8862-11.3518.7219 1.4633.9254 1.165 1.1448 1.1569-1.2844 1.6448-.8217 1.6487-1.037-.7982-.9454-1.1609-1.1766-.8143.714-1.419.9253-1.3464.8377-1.5359zm8.0054 0 .6821 1.6326.9253 1.3464 1.1448 1.3545-1.424.8183-1.1049.9836-.9772 1.1287-.714-1.8543-1.045-1.6326.7179-1.2537.9254-1.165.8696-1.3626zm-.0479 9.0701 1.3642-.8183 1.049-1.0481 1.0849-1.2577.3112 1.6769.5265 1.3061-.8616 1.294-1.2325 1.1046-.8496 1.3343-.71-1.7213-.6861-1.8745zm-1.9146-.2781-.9373 1.1771-.5585 1.2859-.5384 1.4996-.4667-1.5359-.6302-1.2496-.8058-1.161 1.1568-1.681.7419-1.8181 1.0131 1.673 1.0251 1.814zm-5.9911.2781-.9333 1.7858-.4747 1.7818-1.1687-1.0239-.7578-1.5117-1.0092-1.1731.347-1.3746.5983-1.1852.9892.8184 1.2046.8667 1.1967 1.0158zm1.1488 2.0559.4308 1.4029.6541 1.0803-2.0901.1129.7778-1.1892.2234-1.4029zm5.6121 0 .2194 1.3908.4747 1.1045-2.0781-.0121.9573-1.0924.4228-1.3908zm6.0869.2258-.0559 1.4512.2393 1.2174-2.3453-.2258 1.3162-1.0118.8457-1.427zm2.5727-10.2271.5504 2.0317.8457 1.7253-1.2565 1.4795-1.6075.9634-.3789-1.3141-.7259-1.3666 1.029-.9877.718-1.2214.8297-1.3101zm-.5185 12.2426.0398-1.9954-.2991-1.7818 1.3123-1.5439 1.6593-1.0078.3231 1.3464.6741 1.415-1.3761.9715-1.1129 1.2577-1.2205 1.3343zm3.9329-1.3182.0199 1.5279.2952 1.7535-1.3961-.1935-1.2604-.4353 1.2604-1.1771 1.081-1.4714zm.2353-6.5587 1.4998-.7498 1.2085-1.0118 1.3044-1.1973-.0958 2.1043.2154 1.814-1.4 1.1167-1.5197.7982-.4906-1.3303zm10.7496-1.9228-1.6912.6167-1.4439.9353-1.5038 1.1448.0998-1.7253-.1556-1.5198-.351-1.4996 1.8109-.516 1.6633-.8747 1.7151-.8788-.1116 1.4552.1515 1.3908-.1874 1.4673zm-9.6527 12.1701.0399-.129.0877-1.423-.1037-1.4633.5664-1.9471 1.5157-.9836 1.448-1.1771-.0798 1.9309.3031 1.8745-1.5516 1.3988-1.1767.8788-1.057 1.0441zm5.6241-4.0594.1396-1.8544-.2313-1.6689 1.1727-1.0158 1.5596-.4596 1.1886-.7901.1197 1.3384-.2035 1.5157.1955 1.4633-1.2126.5563-1.3322.3628-1.3961.5563zm18.6394-19.2892-.2593 1.5802.0798 1.4553.3031 1.4552-.347 1.3424-1.3522.391-1.388.645-1.5158.2338-1.3242.6208-.1795-1.6931.0279-1.7656-.2513-1.8785 1.6035-.6491 1.6274-.2297 1.3482-.9353 1.6194-.5684zm-24.1837-3.86185 1.4718-.72158 1.1767-.96749 1.049-1.15291 1.2684-.5684.5864 1.70116.8656 1.73744.4547 1.76163-1.0291.8264-1.1249.9755-1.2604.7821-1.3043 1.0642-.7778-1.8664-.347-1.8907-1.0251-1.68095zm1.3083 8.07845.339 2.0882.6502 1.814-1.1647 1.2335-1.6195.7297-1.2484 1.0037-.5864-1.1247-.343-1.4109-.698-1.1932 1.4519-1.0884 1.6114-.9232 1.6155-1.1327zm-8.871-1.685.4188 1.6004.6861 1.3504.9054 1.3625-1.2325 1.0522-.8855 1.1892-.7339 1.3101-.6741-1.5399-1.0012-1.3343-1.0131-1.3787 1.2245-1.1448.9813-1.3223 1.3282-1.1448zm-12.8437-8.78394 1.2684-.91508.9374-1.10454.7778-1.26176 1.1407-.72158.8576.98764 1.1328.91105.8257 1.21338 1.0849.88686-.8575 1.33432-1.0571 1.2416-.8137 1.43505-1.1727 1.3424-.8376-1.6044-1.2844-1.06421-.9972-1.28594-1.0091-1.40285zm4.1243 8.22764.8018 1.556 1.0171 1.2537 1.2365 1.2376-1.3043 1.2335-.9533 1.3424-.7978 1.4593-.7618-1.4835-1.077-1.2577-1.0929-1.298 1.0291-1.2941.7659-1.4351zm-8.7193.5563 1.033 1.4351 1.2046 1.1005 1.42 1.0642-1.2285 1.3343-.8735 1.415-.71 1.5197-.6981-1.3343-1.0051-1.1005-1.0211-1.1327.69-1.3868.3949-1.4714.7977-1.4391zm-3.9888 4.7366-.8615 1.2981-.4867 1.3504-.4347 1.5601-1.3004-1.3948-1.3841-1.0441-1.5037-.8869.7977-1.8301.379-1.8906 1.5715.8546 1.5237 1.0602 1.6992.9271zm-10.8095-9.2636.9972-1.76567.6063-1.83822.5026-2.02768 1.1966 1.23757 1.2246.90298 1.3402.74577.9972.95136-.5465 1.65679-.5584 1.7939-.7738 1.7011-1.3363-.653-1.1926-.8788-1.0012-1.1771-1.4638-.6531zm2.8161 11.0454-.4587 1.5802-.0758 1.5278.0199 1.7173-1.4598-1.2134-1.4838-.8667-1.5796-.6974.1556-1.4028-.2314-1.3787-.1874-1.4512 1.743.8062 1.8069.516 1.7591.8627zm-6.9643 8.2276-1.5437-.8949-1.5676-.52-1.73506-.3789.24726-1.7496-.0957-1.6205-.29116-1.6125 1.58756.8345 1.7191.4676 1.755.4918-.0997 1.6447.1995 1.6044-.1795 1.7254zm5.7198 8.2397-1.2804-.8505-1.3083-.4838-1.4958-.3668.363-2.0075-.0837-1.7536 1.8108.4837 1.7431.8103.0878 1.2416.1555 1.4029v1.5237zm42.3205 2.5155-1.3322.387-1.2445.5523-1.2445.6611h-1.8827l-1.8109.2822-1.8029.4111-1.8547-.0725-1.8269.266-1.8348.2258-1.8468-.0363-1.8428.2419-1.8468-.0645-1.5636-.4314-1.5875.3024-1.5755-.0847-1.5596-.3023-1.5796-.0282-1.5316-.4677-1.5955.0807-1.7431-.5966-1.8348-.0565-1.7431-.52-1.3283-.1613-1.2285-.528-.8616-.8426-.2233-.1007.0798-.2701-.0479-.0565-.0239.0404-.2952-.0444.0518-.1774.1237-.1773.1595-.1935 1.1328-.4394 1.1727-.6208 1.3203-.1532 1.779-.3144 1.7351-.5604 1.771-.4353 1.5955.1128 1.5636-.1411 1.5516-.3225 1.5875.2984 1.5676-.0766 1.5675-.1613 1.5716-.1572 1.5676.3144 1.5676-.0201 1.5715.0121 1.5716.0242 1.5715.0403 1.5676.0806 1.5397.4273 1.8268.0645 1.8308.0524 1.8069.2741 1.2605.5604 1.2644.4071 1.2086.4475.2992.1773.1675 1.4029-.2593.4636zm1.081-1.7374.4307-1.5601.0838-1.4714-.0718-2.2333 2.0981-.3023 1.767-.6692.1077 1.7697-.2274 1.8665-1.6553.9553-1.1687.8627-1.3641.7861z" fill="#ccaf66"></path></svg>