<svg xmlns="http://www.w3.org/2000/svg" fill="none" height="40" viewBox="0 0 916 40" width="916"><path d="m496.681 9.83335-1.07-.68604-1.398.62766-1.325.81253-1.556.2384-1.427.5596-1.365.7201-.76.832.181 1.4499.182 1.45-.03 1.4548.216 1.5716-1.614.5839-1.634.2189-1.526.8418.01-1.5473.25-1.4062-.02-1.4207.187-.4525-1.281-.3211-1.526.3357-1.31.8417-1.448.5255-1.521.7834-.618-1.883-.304-1.8003 1.271-.9439 1.447-.7444 1.325-.9294 1.315-.939.113-1.08018-.525-1.28938-.515-1.29425-.535-1.28938-.324-1.36723-.618-1.25532-.413-.63253-.873.06326-1.055 1.02177-1.089.97798-1.34.64226-1.187.85148-1.07 1.00718-.564.99744.588 1.38669.683 1.34781.696 1.3429.324 1.3429-1.344.8563-1.433.9488-1.399.9537-.687-1.4159-.692-1.4451-.417-1.5667-.799-.506-.751.3649-.937.9439-1.129.759-.957.9294-.795 1.0169-.878-1.1386-.913-1.1775-.893-1.192.766-1.1872.853-1.11912 1.114-.91959.81-1.15801.657-1.27479-.009-.905-.766-1.15801-1.114-.82228-1.011-.92446-.814-1.11422-.8-1.12882-1.403.141102-.815 1.109358-1.109.82715-.814 1.11422-1.188.75903-.839 1.08989-.103 1.17261 1.089.93419.854 1.11422.815 1.14828.716 1.23095.977 1.0656-.967 1.1726-1.021 1.0996-.736 1.2845-.922-.9341-.835-1.0461-1.099-.7883-.981-.905-.721-.326-.53.5742-.731 1.4305-.575 1.4986-.741 1.5083-1.398-1.1337-1.443-.9342-1.423-.8028.359-1.3672.525-1.4111.647-1.36232.491-1.42562-.245-.87094-1.065-1.01204-1.251-.75903-1.183-.85148-1.183-.85634-1.158-.89041-.746-.08271-.672.4379-.481 1.30398-.24 1.39642-.648 1.24559-.736 1.21154-.427 1.3283.501.97316 1.3.9585 1.183 1.1288 1.452.7444 1.418.8904-.598 1.7906-.599 1.6932-1.453-.3698-1.31-.8417-1.491-.4185-1.301-.8661-.917.2774-.157.7444v1.4159l-.015 1.4208.128 1.5375-1.6-.6325-1.57-.3844-1.468-.7201.074-1.4694v-1.4548l-.039-1.4597-.039-1.4597-.354-.7882-1.339-.7737-1.453-.4962-1.462-.4671-1.413-.60337-1.414-.60334-.942.05352-.328.85149.152 1.4159-.26 1.4159-.02 1.4159.083 1.4158.251 1.4159.436.8369 1.536.6666 1.674.2384 1.521.725 1.761.2384-.132 1.5035.088 1.3964.363 1.3818-.108 1.411.623.6472 1.237.7201 1.33.4865 1.29.5985 1.423.3017-.063 1.5375.078 1.5229-.231 1.5229.653.9245 1.296.2919 1.079.798 1.212.5011 1.276.3455.284.3892.339.3017.093.5109 1.335.6763 1.335.2384 1.202.6082 1.688.3212 1.698.2481 1.693.2871 1.457.0243 1.428.3309 1.457.0097 1.453.0243 1.447.2287 1.458.0146 1.452-.1362 1.453.0292 1.462.1021 1.433-.3406 1.452-.0535 1.418-.3795 1.453-.0487 1.472.0244 1.663-.3698 1.664-.3503 1.639-.4525 1.231-.3698 1.148-.5887.977-.8515.697-.4915 1.153-.6082 1.364-.0778 1.526-.5352 1.472-.6617.53-.8953.069-.0146-.334-1.5229.241-1.523-.182-1.6202 1.403-.5839 1.414-.2724 1.3-.5693 1.369-.3893.339-.866.299-1.3819-.142-1.411.304-1.3867.054-1.4061 1.57-.5839 1.61-.4428 1.663-.2724 1.58-.5499.584-.9536-.167-1.4159.079-1.4159.181-1.4159.064-1.4159-.025-1.4158-.328-.27252zm-69.438 8.44185-1.34-.6666-1.33-.3406-1.393-.146-1.124-.6812.039-1.192-.176-1.2943.211-1.2942-.172-1.231 1.33.4038 1.315.5936 1.423.3357 1.413.6277-.373 1.6446.285 1.5716-.113 1.664zm56.351 8.3444.206-1.5326-.103-1.4256-.27-1.5327 1.713-.2773 1.511-.545 1.453-.7055-.3 1.4256.049 1.45.035 1.484-1.448.4865-1.31.725-1.536.4525zm-6.56 6.0626-.094.9585-.829-.5742-1.119-.2578-.854-.4574 1.163-.5352 1.497-.9293.24 1.7954zm-41.896-9.6874 1.212.9682 1.276.6423 1.447.5449-.456 1.6057-.069 1.4256-1.069-.2628-1.114-.5936-1.188-.2335-.098-1.304.103-1.3429-.039-1.4597zm9.696-.0925-.746 1.3429-.324 1.3235-1.501-.6764-1.173-1.1385.201-1.6154.01-1.7224 1.011 1.0072 1.222.7298 1.305.7445zm-4.603 6.1745.417-1.7176.01-1.6008 1.438.652 1.134 1.1191-.02 1.6397.172 1.7176-1.414-1.1191-1.737-.6958zm.025 1.8246 1.747 1.3574-1.276.3358-.599.3406zm4.838-2.0631.977 1.2359 1.094.8953-2.198.4719.319-1.2893-.192-1.3089zm3.047-9.8236.678 1.2213.819.9634 1.016.9293-.834 1.2359-.349 1.1677-1.339-.9877-1.144-1.2067.565-1.5472.583-1.7662zm.913 7.4444-.476 1.6689-.064 1.5716-1.182-.798-.864-1.2748-1.05-.939.28-1.2651.461-1.0996 1.335 1.0461 1.56 1.0947zm1.418 1.6494.785 1.2991.938.9731-2.145.2579.461-1.2213-.049-1.3039zm4.426-10.0912.653 1.2991.839 1.0364 1.035 1.0266-1.163 1.4645-.745 1.4646-.938-.7104-.858-1.0315-1.065-.725.648-1.2602.839-1.1969zm7.253 0 .618 1.4499.839 1.197 1.04 1.2066-1.29.7299-1.001.8709-.888 1.0023-.648-1.6494-.947-1.45.653-1.1142.839-1.0364.785-1.2115zm-.044 8.0623 1.236-.725.952-.9293.982-1.1191.284 1.4888.476 1.1629-.78 1.1532-1.114.9828-.77 1.1823-.643-1.5277-.623-1.6641zm-1.737-.2482-.849 1.0461-.506 1.1434-.486 1.3332-.422-1.3624-.569-1.1093-.731-1.0315 1.05-1.4938.672-1.6202.918 1.4889.932 1.6105zm-5.428.2482-.844 1.591-.426 1.5862-1.06-.9099-.687-1.3429-.913-1.0412.314-1.2261.54-1.051.898.725 1.089.7687 1.085.905zm1.041 1.8294.392 1.2456.594.9585-1.894.1022.707-1.0558zm5.083 0 .202 1.2359.431.978-1.884-.0098.869-.9731.382-1.2358zm5.516.1995-.049 1.2894.216 1.0801-2.125-.2043 1.192-.9001.766-1.27zm2.331-9.0938.495 1.8052.766 1.5375-1.139 1.3186-1.457.8563-.344-1.1677-.657-1.2164.932-.8758.653-1.0899zm-.472 10.8843.035-1.771-.27-1.5814 1.187-1.372 1.502-.8953.294 1.1969.614 1.2553-1.247.8613-1.01 1.119-1.109 1.1872zm3.563-1.1726.02 1.3575.265 1.557-1.266-.1751-1.144-.3893 1.144-1.0461.981-1.3088zm.216-5.8289 1.359-.6666 1.094-.9002 1.183-1.0655-.088 1.8684.196 1.6105-1.266.9926-1.379.7103-.442-1.1823-.657-1.3721zm9.74-1.7079-1.531.5498-1.305.8321-1.364 1.0169.093-1.5327-.142-1.3526-.319-1.3332 1.639-.4574 1.506-.7785 1.556-.7784-.103 1.2942.137 1.2359zm-8.744 10.8162.034-.1119.079-1.265-.093-1.304.515-1.7321 1.374-.8759 1.31-1.0461-.074 1.7176.275 1.664-1.403 1.2456-1.065.7834-.957.9293zm5.093-3.6054.128-1.6494-.211-1.484 1.06-.905 1.413-.4087 1.075-.7007.108 1.1873-.187 1.3477.177 1.2991-1.099.4915-1.207.3211-1.266.4914zm16.885-17.1463-.235 1.4013.073 1.2942.275 1.2943-.314 1.1921-1.227.3454-1.256.5742-1.374.2092-1.197.5547-.162-1.5084.024-1.5667-.225-1.6689 1.452-.579 1.472-.2044 1.222-.832 1.467-.506zm-21.914-3.43023 1.334-.6374 1.07-.86121.952-1.02663 1.148-.50603.53 1.5132.781 1.54726.412 1.56672-.933.73472-1.02.8709-1.144.6958-1.182.9439-.707-1.6591-.314-1.67867-.927-1.49373zm1.182 7.18163.305 1.8538.588 1.6153-1.055 1.0948-1.467.6471-1.133.8953-.535-.9975-.309-1.2553-.633-1.0607 1.315-.9682 1.457-.8223 1.467-1.0072zm-8.037-1.4986.382 1.4207.619 1.2018.819 1.2116-1.114.939-.804 1.0558-.663 1.1629-.608-1.3672-.908-1.1872-.918-1.2261 1.109-1.0169.888-1.1727 1.203-1.0169zm-11.64-7.8093 1.149-.81255.849-.98285.706-1.12395 1.036-.63739.775.88067 1.025.81255.751 1.08016.982.78823-.776 1.1872-.957 1.10449-.736 1.27479-1.064 1.19205-.756-1.4256-1.163-.94879-.903-1.14342-.913-1.24559zm3.74 7.313.726 1.3818.922 1.1142 1.119 1.0997-1.183 1.0947-.863 1.1921-.721 1.2991-.692-1.3186-.977-1.1142-.991-1.1531.932-1.1483.692-1.2748 1.031-1.1678zm-7.901.4963.933 1.2748 1.094.9779 1.286.944-1.114 1.1872-.795 1.2553-.643 1.3478-.633-1.1872-.913-.978-.927-1.0072.623-1.231.358-1.3088.722-1.2797zm-3.616 4.2087-.78 1.1532-.442 1.2018-.392 1.3866-1.178-1.2358-1.256-.9293-1.364-.7883.721-1.6299.343-1.6835 1.423.759 1.379.9439 1.541.8272zm-9.794-8.23743.902-1.57159.55-1.63484.452-1.80513 1.084 1.09962 1.109.80283 1.217.66172.903.84661-.496 1.47427-.505 1.59594-.702 1.5132-1.207-.5839-1.08-.7834-.907-1.0461-1.325-.57897zm2.551 9.81873-.417 1.4062-.069 1.3575.02 1.5278-1.325-1.0802-1.344-.7688-1.433-.6179.142-1.2456-.206-1.2261-.172-1.2894 1.58.7201 1.634.4574 1.595.7639zm-6.31 7.313-1.399-.7931-1.418-.4622-1.57-.3357.226-1.557-.089-1.4402-.265-1.4305 1.438.7444 1.561.4184 1.589.4379-.088 1.4646.182 1.4256-.162 1.5327zm5.182 7.3276-1.158-.7542-1.188-.4282-1.354-.326.329-1.7856-.074-1.557 1.639.4282 1.58.7201.078 1.1045.138 1.2455v1.3575zm38.343 2.2333-1.208.3454-1.128.4915-1.129.5887h-1.707l-1.639.253-1.634.3649-1.678-.0632-1.654.2384-1.664.2043-1.673-.034-1.668.2141-1.673-.0584-1.419-.3844-1.437.2725-1.428-.073-1.413-.2676-1.433-.0243-1.389-.4185-1.448.073-1.58-.5303-1.663-.0487-1.58-.4622-1.207-.146-1.114-.4671-.78-.7493-.206-.0924.073-.2385-.044-.0486-.02.034-.269-.0389.049-.1557.113-.1605.142-.1752 1.025-.3893 1.06-.5498 1.198-.1362 1.614-.2773 1.575-.4963 1.605-.3844 1.447.0973 1.418-.1265 1.409-.2871 1.437.2628 1.418-.0682 1.419-.1411 1.423-.1411 1.418.2822 1.423-.0194 1.423.0097 1.423.0195 1.423.034 1.423.0682 1.393.3795 1.654.0584 1.659.0486 1.639.2433 1.143.5011 1.143.3601 1.094.399.27.1605.152 1.2456-.235.4136zm.976-1.5424.393-1.3867.078-1.3088-.064-1.9852 1.904-.2676 1.6-.5936.098 1.5716-.206 1.6591-1.497.8515-1.06.7688-1.236.6958z" fill="#9aaba2"></path><g stroke="#9aaba2"><path d="m561 18.5h355"></path><path d="m0 18.5h355"></path></g></svg>